<?xml version="1.0" standalone="no"?>
 <!DOCTYPE svg PUBLIC "-//W3C//DTD SVG 1.1//EN" 
 "http://www.w3.org/Graphics/SVG/1.1/DTD/svg11.dtd"> 
<svg
  xmlns:svg="http://www.w3.org/2000/svg"
  xmlns="http://www.w3.org/2000/svg"
  xmlns:xlink="http://www.w3.org/1999/xlink"
  version="1.1"
  width="297.0022mm" height="210.0072mm" viewBox="0.0000 0.0000 297.0022 210.0072">
<title>SVG Image created as RC_CPRcheck.svg date 2023/05/08 06:24:47 </title>
  <desc>Image generated by Eeschema-SVG </desc>
<g style="fill:#000000; fill-opacity:1.0000;stroke:#000000; stroke-opacity:1.0000;
stroke-linecap:round; stroke-linejoin:round;"
 transform="translate(0 0) scale(1 1)">
</g>
<g style="fill:#840000; fill-opacity:0.0; 
stroke:#840000; stroke-width:0.0000; stroke-opacity:1; 
stroke-linecap:round; stroke-linejoin:round;">
</g>
<g style="fill:#840000; fill-opacity:0.0; 
stroke:#840000; stroke-width:0.1524; stroke-opacity:1; 
stroke-linecap:round; stroke-linejoin:round;">
<path d="M177.0022 166.0072
L285.0022 166.0072
L285.0022 198.0072
L177.0022 198.0072
L177.0022 166.0072
" />
<path d="M10.0000 10.0000
L287.0022 10.0000
L287.0022 200.0072
L10.0000 200.0072
L10.0000 10.0000
" />
<path d="M12.0000 12.0000
L285.0022 12.0000
L285.0022 198.0072
L12.0000 198.0072
L12.0000 12.0000
" />
<path d="M60.0000 12.0000
L60.0000 10.0000
" />
<path d="M110.0000 12.0000
L110.0000 10.0000
" />
<path d="M160.0000 12.0000
L160.0000 10.0000
" />
<path d="M210.0000 12.0000
L210.0000 10.0000
" />
<path d="M260.0000 12.0000
L260.0000 10.0000
" />
<text x="35.0000" y="11.6500"
textLength="1.3591" font-size="1.7333" lengthAdjust="spacingAndGlyphs"
text-anchor="start" opacity="0">1</text>
<g class="stroked-text"><desc>1</desc>
<path d="M35.9904 11.6015
L35.2476 11.6015
" />
<path d="M35.6190 11.6015
L35.6190 10.3015
" />
<path d="M35.6190 10.3015
L35.4952 10.4872
" />
<path d="M35.4952 10.4872
L35.3714 10.6110
" />
<path d="M35.3714 10.6110
L35.2476 10.6729
" />
</g><text x="85.0000" y="11.6500"
textLength="1.3591" font-size="1.7333" lengthAdjust="spacingAndGlyphs"
text-anchor="start" opacity="0">2</text>
<g class="stroked-text"><desc>2</desc>
<path d="M85.2476 10.4253
L85.3095 10.3634
" />
<path d="M85.3095 10.3634
L85.4333 10.3015
" />
<path d="M85.4333 10.3015
L85.7428 10.3015
" />
<path d="M85.7428 10.3015
L85.8666 10.3634
" />
<path d="M85.8666 10.3634
L85.9285 10.4253
" />
<path d="M85.9285 10.4253
L85.9904 10.5491
" />
<path d="M85.9904 10.5491
L85.9904 10.6729
" />
<path d="M85.9904 10.6729
L85.9285 10.8586
" />
<path d="M85.9285 10.8586
L85.1857 11.6015
" />
<path d="M85.1857 11.6015
L85.9904 11.6015
" />
</g><text x="135.0000" y="11.6500"
textLength="1.3591" font-size="1.7333" lengthAdjust="spacingAndGlyphs"
text-anchor="start" opacity="0">3</text>
<g class="stroked-text"><desc>3</desc>
<path d="M135.1857 10.3015
L135.9904 10.3015
" />
<path d="M135.9904 10.3015
L135.5571 10.7967
" />
<path d="M135.5571 10.7967
L135.7428 10.7967
" />
<path d="M135.7428 10.7967
L135.8666 10.8586
" />
<path d="M135.8666 10.8586
L135.9285 10.9205
" />
<path d="M135.9285 10.9205
L135.9904 11.0443
" />
<path d="M135.9904 11.0443
L135.9904 11.3538
" />
<path d="M135.9904 11.3538
L135.9285 11.4776
" />
<path d="M135.9285 11.4776
L135.8666 11.5396
" />
<path d="M135.8666 11.5396
L135.7428 11.6015
" />
<path d="M135.7428 11.6015
L135.3714 11.6015
" />
<path d="M135.3714 11.6015
L135.2476 11.5396
" />
<path d="M135.2476 11.5396
L135.1857 11.4776
" />
</g><text x="185.0000" y="11.6500"
textLength="1.3591" font-size="1.7333" lengthAdjust="spacingAndGlyphs"
text-anchor="start" opacity="0">4</text>
<g class="stroked-text"><desc>4</desc>
<path d="M185.8666 10.7348
L185.8666 11.6015
" />
<path d="M185.5571 10.2396
L185.2476 11.1681
" />
<path d="M185.2476 11.1681
L186.0523 11.1681
" />
</g><text x="235.0000" y="11.6500"
textLength="1.3591" font-size="1.7333" lengthAdjust="spacingAndGlyphs"
text-anchor="start" opacity="0">5</text>
<g class="stroked-text"><desc>5</desc>
<path d="M235.9285 10.3015
L235.3095 10.3015
" />
<path d="M235.3095 10.3015
L235.2476 10.9205
" />
<path d="M235.2476 10.9205
L235.3095 10.8586
" />
<path d="M235.3095 10.8586
L235.4333 10.7967
" />
<path d="M235.4333 10.7967
L235.7428 10.7967
" />
<path d="M235.7428 10.7967
L235.8666 10.8586
" />
<path d="M235.8666 10.8586
L235.9285 10.9205
" />
<path d="M235.9285 10.9205
L235.9904 11.0443
" />
<path d="M235.9904 11.0443
L235.9904 11.3538
" />
<path d="M235.9904 11.3538
L235.9285 11.4776
" />
<path d="M235.9285 11.4776
L235.8666 11.5396
" />
<path d="M235.8666 11.5396
L235.7428 11.6015
" />
<path d="M235.7428 11.6015
L235.4333 11.6015
" />
<path d="M235.4333 11.6015
L235.3095 11.5396
" />
<path d="M235.3095 11.5396
L235.2476 11.4776
" />
</g><text x="285.0000" y="11.6500"
textLength="1.3591" font-size="1.7333" lengthAdjust="spacingAndGlyphs"
text-anchor="start" opacity="0">6</text>
<g class="stroked-text"><desc>6</desc>
<path d="M285.8666 10.3015
L285.6190 10.3015
" />
<path d="M285.6190 10.3015
L285.4952 10.3634
" />
<path d="M285.4952 10.3634
L285.4333 10.4253
" />
<path d="M285.4333 10.4253
L285.3095 10.6110
" />
<path d="M285.3095 10.6110
L285.2476 10.8586
" />
<path d="M285.2476 10.8586
L285.2476 11.3538
" />
<path d="M285.2476 11.3538
L285.3095 11.4776
" />
<path d="M285.3095 11.4776
L285.3714 11.5396
" />
<path d="M285.3714 11.5396
L285.4952 11.6015
" />
<path d="M285.4952 11.6015
L285.7428 11.6015
" />
<path d="M285.7428 11.6015
L285.8666 11.5396
" />
<path d="M285.8666 11.5396
L285.9285 11.4776
" />
<path d="M285.9285 11.4776
L285.9904 11.3538
" />
<path d="M285.9904 11.3538
L285.9904 11.0443
" />
<path d="M285.9904 11.0443
L285.9285 10.9205
" />
<path d="M285.9285 10.9205
L285.8666 10.8586
" />
<path d="M285.8666 10.8586
L285.7428 10.7967
" />
<path d="M285.7428 10.7967
L285.4952 10.7967
" />
<path d="M285.4952 10.7967
L285.3714 10.8586
" />
<path d="M285.3714 10.8586
L285.3095 10.9205
" />
<path d="M285.3095 10.9205
L285.2476 11.0443
" />
</g><path d="M60.0000 198.0072
L60.0000 200.0072
" />
<path d="M110.0000 198.0072
L110.0000 200.0072
" />
<path d="M160.0000 198.0072
L160.0000 200.0072
" />
<path d="M210.0000 198.0072
L210.0000 200.0072
" />
<path d="M260.0000 198.0072
L260.0000 200.0072
" />
<text x="35.0000" y="199.6572"
textLength="1.3591" font-size="1.7333" lengthAdjust="spacingAndGlyphs"
text-anchor="start" opacity="0">1</text>
<g class="stroked-text"><desc>1</desc>
<path d="M35.9904 199.6087
L35.2476 199.6087
" />
<path d="M35.6190 199.6087
L35.6190 198.3087
" />
<path d="M35.6190 198.3087
L35.4952 198.4944
" />
<path d="M35.4952 198.4944
L35.3714 198.6182
" />
<path d="M35.3714 198.6182
L35.2476 198.6801
" />
</g><text x="85.0000" y="199.6572"
textLength="1.3591" font-size="1.7333" lengthAdjust="spacingAndGlyphs"
text-anchor="start" opacity="0">2</text>
<g class="stroked-text"><desc>2</desc>
<path d="M85.2476 198.4325
L85.3095 198.3706
" />
<path d="M85.3095 198.3706
L85.4333 198.3087
" />
<path d="M85.4333 198.3087
L85.7428 198.3087
" />
<path d="M85.7428 198.3087
L85.8666 198.3706
" />
<path d="M85.8666 198.3706
L85.9285 198.4325
" />
<path d="M85.9285 198.4325
L85.9904 198.5563
" />
<path d="M85.9904 198.5563
L85.9904 198.6801
" />
<path d="M85.9904 198.6801
L85.9285 198.8658
" />
<path d="M85.9285 198.8658
L85.1857 199.6087
" />
<path d="M85.1857 199.6087
L85.9904 199.6087
" />
</g><text x="135.0000" y="199.6572"
textLength="1.3591" font-size="1.7333" lengthAdjust="spacingAndGlyphs"
text-anchor="start" opacity="0">3</text>
<g class="stroked-text"><desc>3</desc>
<path d="M135.1857 198.3087
L135.9904 198.3087
" />
<path d="M135.9904 198.3087
L135.5571 198.8039
" />
<path d="M135.5571 198.8039
L135.7428 198.8039
" />
<path d="M135.7428 198.8039
L135.8666 198.8658
" />
<path d="M135.8666 198.8658
L135.9285 198.9277
" />
<path d="M135.9285 198.9277
L135.9904 199.0515
" />
<path d="M135.9904 199.0515
L135.9904 199.3610
" />
<path d="M135.9904 199.3610
L135.9285 199.4848
" />
<path d="M135.9285 199.4848
L135.8666 199.5468
" />
<path d="M135.8666 199.5468
L135.7428 199.6087
" />
<path d="M135.7428 199.6087
L135.3714 199.6087
" />
<path d="M135.3714 199.6087
L135.2476 199.5468
" />
<path d="M135.2476 199.5468
L135.1857 199.4848
" />
</g><text x="185.0000" y="199.6572"
textLength="1.3591" font-size="1.7333" lengthAdjust="spacingAndGlyphs"
text-anchor="start" opacity="0">4</text>
<g class="stroked-text"><desc>4</desc>
<path d="M185.8666 198.7420
L185.8666 199.6087
" />
<path d="M185.5571 198.2468
L185.2476 199.1753
" />
<path d="M185.2476 199.1753
L186.0523 199.1753
" />
</g><text x="235.0000" y="199.6572"
textLength="1.3591" font-size="1.7333" lengthAdjust="spacingAndGlyphs"
text-anchor="start" opacity="0">5</text>
<g class="stroked-text"><desc>5</desc>
<path d="M235.9285 198.3087
L235.3095 198.3087
" />
<path d="M235.3095 198.3087
L235.2476 198.9277
" />
<path d="M235.2476 198.9277
L235.3095 198.8658
" />
<path d="M235.3095 198.8658
L235.4333 198.8039
" />
<path d="M235.4333 198.8039
L235.7428 198.8039
" />
<path d="M235.7428 198.8039
L235.8666 198.8658
" />
<path d="M235.8666 198.8658
L235.9285 198.9277
" />
<path d="M235.9285 198.9277
L235.9904 199.0515
" />
<path d="M235.9904 199.0515
L235.9904 199.3610
" />
<path d="M235.9904 199.3610
L235.9285 199.4848
" />
<path d="M235.9285 199.4848
L235.8666 199.5468
" />
<path d="M235.8666 199.5468
L235.7428 199.6087
" />
<path d="M235.7428 199.6087
L235.4333 199.6087
" />
<path d="M235.4333 199.6087
L235.3095 199.5468
" />
<path d="M235.3095 199.5468
L235.2476 199.4848
" />
</g><text x="285.0000" y="199.6572"
textLength="1.3591" font-size="1.7333" lengthAdjust="spacingAndGlyphs"
text-anchor="start" opacity="0">6</text>
<g class="stroked-text"><desc>6</desc>
<path d="M285.8666 198.3087
L285.6190 198.3087
" />
<path d="M285.6190 198.3087
L285.4952 198.3706
" />
<path d="M285.4952 198.3706
L285.4333 198.4325
" />
<path d="M285.4333 198.4325
L285.3095 198.6182
" />
<path d="M285.3095 198.6182
L285.2476 198.8658
" />
<path d="M285.2476 198.8658
L285.2476 199.3610
" />
<path d="M285.2476 199.3610
L285.3095 199.4848
" />
<path d="M285.3095 199.4848
L285.3714 199.5468
" />
<path d="M285.3714 199.5468
L285.4952 199.6087
" />
<path d="M285.4952 199.6087
L285.7428 199.6087
" />
<path d="M285.7428 199.6087
L285.8666 199.5468
" />
<path d="M285.8666 199.5468
L285.9285 199.4848
" />
<path d="M285.9285 199.4848
L285.9904 199.3610
" />
<path d="M285.9904 199.3610
L285.9904 199.0515
" />
<path d="M285.9904 199.0515
L285.9285 198.9277
" />
<path d="M285.9285 198.9277
L285.8666 198.8658
" />
<path d="M285.8666 198.8658
L285.7428 198.8039
" />
<path d="M285.7428 198.8039
L285.4952 198.8039
" />
<path d="M285.4952 198.8039
L285.3714 198.8658
" />
<path d="M285.3714 198.8658
L285.3095 198.9277
" />
<path d="M285.3095 198.9277
L285.2476 199.0515
" />
</g><path d="M10.0000 60.0000
L12.0000 60.0000
" />
<path d="M10.0000 110.0000
L12.0000 110.0000
" />
<path d="M10.0000 160.0000
L12.0000 160.0000
" />
<text x="11.0000" y="35.6500"
textLength="1.2353" font-size="1.7333" lengthAdjust="spacingAndGlyphs"
text-anchor="middle" opacity="0">A</text>
<g class="stroked-text"><desc>A</desc>
<path d="M10.6905 35.2300
L11.3095 35.2300
" />
<path d="M10.5667 35.6015
L11.0000 34.3015
" />
<path d="M11.0000 34.3015
L11.4333 35.6015
" />
</g><text x="11.0000" y="85.6500"
textLength="1.4210" font-size="1.7333" lengthAdjust="spacingAndGlyphs"
text-anchor="middle" opacity="0">B</text>
<g class="stroked-text"><desc>B</desc>
<path d="M11.0928 84.9205
L11.2785 84.9824
" />
<path d="M11.2785 84.9824
L11.3404 85.0443
" />
<path d="M11.3404 85.0443
L11.4023 85.1681
" />
<path d="M11.4023 85.1681
L11.4023 85.3538
" />
<path d="M11.4023 85.3538
L11.3404 85.4776
" />
<path d="M11.3404 85.4776
L11.2785 85.5396
" />
<path d="M11.2785 85.5396
L11.1547 85.6015
" />
<path d="M11.1547 85.6015
L10.6595 85.6015
" />
<path d="M10.6595 85.6015
L10.6595 84.3015
" />
<path d="M10.6595 84.3015
L11.0928 84.3015
" />
<path d="M11.0928 84.3015
L11.2166 84.3634
" />
<path d="M11.2166 84.3634
L11.2785 84.4253
" />
<path d="M11.2785 84.4253
L11.3404 84.5491
" />
<path d="M11.3404 84.5491
L11.3404 84.6729
" />
<path d="M11.3404 84.6729
L11.2785 84.7967
" />
<path d="M11.2785 84.7967
L11.2166 84.8586
" />
<path d="M11.2166 84.8586
L11.0928 84.9205
" />
<path d="M11.0928 84.9205
L10.6595 84.9205
" />
</g><text x="11.0000" y="135.6500"
textLength="1.4210" font-size="1.7333" lengthAdjust="spacingAndGlyphs"
text-anchor="middle" opacity="0">C</text>
<g class="stroked-text"><desc>C</desc>
<path d="M11.4023 135.4776
L11.3404 135.5396
" />
<path d="M11.3404 135.5396
L11.1547 135.6015
" />
<path d="M11.1547 135.6015
L11.0309 135.6015
" />
<path d="M11.0309 135.6015
L10.8452 135.5396
" />
<path d="M10.8452 135.5396
L10.7214 135.4157
" />
<path d="M10.7214 135.4157
L10.6595 135.2919
" />
<path d="M10.6595 135.2919
L10.5976 135.0443
" />
<path d="M10.5976 135.0443
L10.5976 134.8586
" />
<path d="M10.5976 134.8586
L10.6595 134.6110
" />
<path d="M10.6595 134.6110
L10.7214 134.4872
" />
<path d="M10.7214 134.4872
L10.8452 134.3634
" />
<path d="M10.8452 134.3634
L11.0309 134.3015
" />
<path d="M11.0309 134.3015
L11.1547 134.3015
" />
<path d="M11.1547 134.3015
L11.3404 134.3634
" />
<path d="M11.3404 134.3634
L11.4023 134.4253
" />
</g><text x="11.0000" y="185.6500"
textLength="1.4210" font-size="1.7333" lengthAdjust="spacingAndGlyphs"
text-anchor="middle" opacity="0">D</text>
<g class="stroked-text"><desc>D</desc>
<path d="M10.6595 185.6015
L10.6595 184.3015
" />
<path d="M10.6595 184.3015
L10.9690 184.3015
" />
<path d="M10.9690 184.3015
L11.1547 184.3634
" />
<path d="M11.1547 184.3634
L11.2785 184.4872
" />
<path d="M11.2785 184.4872
L11.3404 184.6110
" />
<path d="M11.3404 184.6110
L11.4023 184.8586
" />
<path d="M11.4023 184.8586
L11.4023 185.0443
" />
<path d="M11.4023 185.0443
L11.3404 185.2919
" />
<path d="M11.3404 185.2919
L11.2785 185.4157
" />
<path d="M11.2785 185.4157
L11.1547 185.5396
" />
<path d="M11.1547 185.5396
L10.9690 185.6015
" />
<path d="M10.9690 185.6015
L10.6595 185.6015
" />
</g><path d="M287.0022 60.0000
L285.0022 60.0000
" />
<path d="M287.0022 110.0000
L285.0022 110.0000
" />
<path d="M287.0022 160.0000
L285.0022 160.0000
" />
<text x="286.0022" y="35.6500"
textLength="1.2353" font-size="1.7333" lengthAdjust="spacingAndGlyphs"
text-anchor="middle" opacity="0">A</text>
<g class="stroked-text"><desc>A</desc>
<path d="M285.6927 35.2300
L286.3117 35.2300
" />
<path d="M285.5689 35.6015
L286.0022 34.3015
" />
<path d="M286.0022 34.3015
L286.4355 35.6015
" />
</g><text x="286.0022" y="85.6500"
textLength="1.4210" font-size="1.7333" lengthAdjust="spacingAndGlyphs"
text-anchor="middle" opacity="0">B</text>
<g class="stroked-text"><desc>B</desc>
<path d="M286.0950 84.9205
L286.2807 84.9824
" />
<path d="M286.2807 84.9824
L286.3426 85.0443
" />
<path d="M286.3426 85.0443
L286.4045 85.1681
" />
<path d="M286.4045 85.1681
L286.4045 85.3538
" />
<path d="M286.4045 85.3538
L286.3426 85.4776
" />
<path d="M286.3426 85.4776
L286.2807 85.5396
" />
<path d="M286.2807 85.5396
L286.1569 85.6015
" />
<path d="M286.1569 85.6015
L285.6617 85.6015
" />
<path d="M285.6617 85.6015
L285.6617 84.3015
" />
<path d="M285.6617 84.3015
L286.0950 84.3015
" />
<path d="M286.0950 84.3015
L286.2188 84.3634
" />
<path d="M286.2188 84.3634
L286.2807 84.4253
" />
<path d="M286.2807 84.4253
L286.3426 84.5491
" />
<path d="M286.3426 84.5491
L286.3426 84.6729
" />
<path d="M286.3426 84.6729
L286.2807 84.7967
" />
<path d="M286.2807 84.7967
L286.2188 84.8586
" />
<path d="M286.2188 84.8586
L286.0950 84.9205
" />
<path d="M286.0950 84.9205
L285.6617 84.9205
" />
</g><text x="286.0022" y="135.6500"
textLength="1.4210" font-size="1.7333" lengthAdjust="spacingAndGlyphs"
text-anchor="middle" opacity="0">C</text>
<g class="stroked-text"><desc>C</desc>
<path d="M286.4045 135.4776
L286.3426 135.5396
" />
<path d="M286.3426 135.5396
L286.1569 135.6015
" />
<path d="M286.1569 135.6015
L286.0331 135.6015
" />
<path d="M286.0331 135.6015
L285.8474 135.5396
" />
<path d="M285.8474 135.5396
L285.7236 135.4157
" />
<path d="M285.7236 135.4157
L285.6617 135.2919
" />
<path d="M285.6617 135.2919
L285.5998 135.0443
" />
<path d="M285.5998 135.0443
L285.5998 134.8586
" />
<path d="M285.5998 134.8586
L285.6617 134.6110
" />
<path d="M285.6617 134.6110
L285.7236 134.4872
" />
<path d="M285.7236 134.4872
L285.8474 134.3634
" />
<path d="M285.8474 134.3634
L286.0331 134.3015
" />
<path d="M286.0331 134.3015
L286.1569 134.3015
" />
<path d="M286.1569 134.3015
L286.3426 134.3634
" />
<path d="M286.3426 134.3634
L286.4045 134.4253
" />
</g><text x="286.0022" y="185.6500"
textLength="1.4210" font-size="1.7333" lengthAdjust="spacingAndGlyphs"
text-anchor="middle" opacity="0">D</text>
<g class="stroked-text"><desc>D</desc>
<path d="M285.6617 185.6015
L285.6617 184.3015
" />
<path d="M285.6617 184.3015
L285.9712 184.3015
" />
<path d="M285.9712 184.3015
L286.1569 184.3634
" />
<path d="M286.1569 184.3634
L286.2807 184.4872
" />
<path d="M286.2807 184.4872
L286.3426 184.6110
" />
<path d="M286.3426 184.6110
L286.4045 184.8586
" />
<path d="M286.4045 184.8586
L286.4045 185.0443
" />
<path d="M286.4045 185.0443
L286.3426 185.2919
" />
<path d="M286.3426 185.2919
L286.2807 185.4157
" />
<path d="M286.2807 185.4157
L286.1569 185.5396
" />
<path d="M286.1569 185.5396
L285.9712 185.6015
" />
<path d="M285.9712 185.6015
L285.6617 185.6015
" />
</g><text x="200.0022" y="193.8572"
textLength="6.9381" font-size="2.0000" lengthAdjust="spacingAndGlyphs"
text-anchor="start" opacity="0">Date: </text>
<g class="stroked-text"><desc>Date: </desc>
<path d="M200.3593 193.8011
L200.3593 192.3011
" />
<path d="M200.3593 192.3011
L200.7164 192.3011
" />
<path d="M200.7164 192.3011
L200.9307 192.3725
" />
<path d="M200.9307 192.3725
L201.0736 192.5154
" />
<path d="M201.0736 192.5154
L201.1450 192.6582
" />
<path d="M201.1450 192.6582
L201.2164 192.9439
" />
<path d="M201.2164 192.9439
L201.2164 193.1582
" />
<path d="M201.2164 193.1582
L201.1450 193.4439
" />
<path d="M201.1450 193.4439
L201.0736 193.5868
" />
<path d="M201.0736 193.5868
L200.9307 193.7297
" />
<path d="M200.9307 193.7297
L200.7164 193.8011
" />
<path d="M200.7164 193.8011
L200.3593 193.8011
" />
<path d="M202.5022 193.8011
L202.5022 193.0154
" />
<path d="M202.5022 193.0154
L202.4307 192.8725
" />
<path d="M202.4307 192.8725
L202.2879 192.8011
" />
<path d="M202.2879 192.8011
L202.0022 192.8011
" />
<path d="M202.0022 192.8011
L201.8593 192.8725
" />
<path d="M202.5022 193.7297
L202.3593 193.8011
" />
<path d="M202.3593 193.8011
L202.0022 193.8011
" />
<path d="M202.0022 193.8011
L201.8593 193.7297
" />
<path d="M201.8593 193.7297
L201.7879 193.5868
" />
<path d="M201.7879 193.5868
L201.7879 193.4439
" />
<path d="M201.7879 193.4439
L201.8593 193.3011
" />
<path d="M201.8593 193.3011
L202.0022 193.2297
" />
<path d="M202.0022 193.2297
L202.3593 193.2297
" />
<path d="M202.3593 193.2297
L202.5022 193.1582
" />
<path d="M203.0021 192.8011
L203.5735 192.8011
" />
<path d="M203.2164 192.3011
L203.2164 193.5868
" />
<path d="M203.2164 193.5868
L203.2878 193.7297
" />
<path d="M203.2878 193.7297
L203.4307 193.8011
" />
<path d="M203.4307 193.8011
L203.5735 193.8011
" />
<path d="M204.6449 193.7297
L204.5021 193.8011
" />
<path d="M204.5021 193.8011
L204.2164 193.8011
" />
<path d="M204.2164 193.8011
L204.0735 193.7297
" />
<path d="M204.0735 193.7297
L204.0021 193.5868
" />
<path d="M204.0021 193.5868
L204.0021 193.0154
" />
<path d="M204.0021 193.0154
L204.0735 192.8725
" />
<path d="M204.0735 192.8725
L204.2164 192.8011
" />
<path d="M204.2164 192.8011
L204.5021 192.8011
" />
<path d="M204.5021 192.8011
L204.6449 192.8725
" />
<path d="M204.6449 192.8725
L204.7164 193.0154
" />
<path d="M204.7164 193.0154
L204.7164 193.1582
" />
<path d="M204.7164 193.1582
L204.0021 193.3011
" />
<path d="M205.3592 193.6582
L205.4306 193.7297
" />
<path d="M205.4306 193.7297
L205.3592 193.8011
" />
<path d="M205.3592 193.8011
L205.2878 193.7297
" />
<path d="M205.2878 193.7297
L205.3592 193.6582
" />
<path d="M205.3592 193.6582
L205.3592 193.8011
" />
<path d="M205.3592 192.8725
L205.4306 192.9439
" />
<path d="M205.4306 192.9439
L205.3592 193.0154
" />
<path d="M205.3592 193.0154
L205.2878 192.9439
" />
<path d="M205.2878 192.9439
L205.3592 192.8725
" />
<path d="M205.3592 192.8725
L205.3592 193.0154
" />
</g><path d="M177.0022 194.5072
L285.0022 194.5072
" />
<text x="178.0022" y="196.6572"
textLength="29.0097" font-size="2.0000" lengthAdjust="spacingAndGlyphs"
text-anchor="start" opacity="0">KiCad E.D.A.  kicad 7.0.2</text>
<g class="stroked-text"><desc>KiCad E.D.A.  kicad 7.0.2</desc>
<path d="M178.3593 196.6011
L178.3593 195.1011
" />
<path d="M179.2164 196.6011
L178.5736 195.7439
" />
<path d="M179.2164 195.1011
L178.3593 195.9582
" />
<path d="M179.8593 196.6011
L179.8593 195.6011
" />
<path d="M179.8593 195.1011
L179.7879 195.1725
" />
<path d="M179.7879 195.1725
L179.8593 195.2439
" />
<path d="M179.8593 195.2439
L179.9307 195.1725
" />
<path d="M179.9307 195.1725
L179.8593 195.1011
" />
<path d="M179.8593 195.1011
L179.8593 195.2439
" />
<path d="M181.4307 196.4582
L181.3593 196.5297
" />
<path d="M181.3593 196.5297
L181.1450 196.6011
" />
<path d="M181.1450 196.6011
L181.0022 196.6011
" />
<path d="M181.0022 196.6011
L180.7879 196.5297
" />
<path d="M180.7879 196.5297
L180.6450 196.3868
" />
<path d="M180.6450 196.3868
L180.5736 196.2439
" />
<path d="M180.5736 196.2439
L180.5022 195.9582
" />
<path d="M180.5022 195.9582
L180.5022 195.7439
" />
<path d="M180.5022 195.7439
L180.5736 195.4582
" />
<path d="M180.5736 195.4582
L180.6450 195.3154
" />
<path d="M180.6450 195.3154
L180.7879 195.1725
" />
<path d="M180.7879 195.1725
L181.0022 195.1011
" />
<path d="M181.0022 195.1011
L181.1450 195.1011
" />
<path d="M181.1450 195.1011
L181.3593 195.1725
" />
<path d="M181.3593 195.1725
L181.4307 195.2439
" />
<path d="M182.7165 196.6011
L182.7165 195.8154
" />
<path d="M182.7165 195.8154
L182.6450 195.6725
" />
<path d="M182.6450 195.6725
L182.5022 195.6011
" />
<path d="M182.5022 195.6011
L182.2165 195.6011
" />
<path d="M182.2165 195.6011
L182.0736 195.6725
" />
<path d="M182.7165 196.5297
L182.5736 196.6011
" />
<path d="M182.5736 196.6011
L182.2165 196.6011
" />
<path d="M182.2165 196.6011
L182.0736 196.5297
" />
<path d="M182.0736 196.5297
L182.0022 196.3868
" />
<path d="M182.0022 196.3868
L182.0022 196.2439
" />
<path d="M182.0022 196.2439
L182.0736 196.1011
" />
<path d="M182.0736 196.1011
L182.2165 196.0297
" />
<path d="M182.2165 196.0297
L182.5736 196.0297
" />
<path d="M182.5736 196.0297
L182.7165 195.9582
" />
<path d="M184.0736 196.6011
L184.0736 195.1011
" />
<path d="M184.0736 196.5297
L183.9307 196.6011
" />
<path d="M183.9307 196.6011
L183.6450 196.6011
" />
<path d="M183.6450 196.6011
L183.5021 196.5297
" />
<path d="M183.5021 196.5297
L183.4307 196.4582
" />
<path d="M183.4307 196.4582
L183.3593 196.3154
" />
<path d="M183.3593 196.3154
L183.3593 195.8868
" />
<path d="M183.3593 195.8868
L183.4307 195.7439
" />
<path d="M183.4307 195.7439
L183.5021 195.6725
" />
<path d="M183.5021 195.6725
L183.6450 195.6011
" />
<path d="M183.6450 195.6011
L183.9307 195.6011
" />
<path d="M183.9307 195.6011
L184.0736 195.6725
" />
<path d="M185.9307 195.8154
L186.4307 195.8154
" />
<path d="M186.6450 196.6011
L185.9307 196.6011
" />
<path d="M185.9307 196.6011
L185.9307 195.1011
" />
<path d="M185.9307 195.1011
L186.6450 195.1011
" />
<path d="M187.2878 196.4582
L187.3592 196.5297
" />
<path d="M187.3592 196.5297
L187.2878 196.6011
" />
<path d="M187.2878 196.6011
L187.2164 196.5297
" />
<path d="M187.2164 196.5297
L187.2878 196.4582
" />
<path d="M187.2878 196.4582
L187.2878 196.6011
" />
<path d="M188.0021 196.6011
L188.0021 195.1011
" />
<path d="M188.0021 195.1011
L188.3592 195.1011
" />
<path d="M188.3592 195.1011
L188.5735 195.1725
" />
<path d="M188.5735 195.1725
L188.7164 195.3154
" />
<path d="M188.7164 195.3154
L188.7878 195.4582
" />
<path d="M188.7878 195.4582
L188.8592 195.7439
" />
<path d="M188.8592 195.7439
L188.8592 195.9582
" />
<path d="M188.8592 195.9582
L188.7878 196.2439
" />
<path d="M188.7878 196.2439
L188.7164 196.3868
" />
<path d="M188.7164 196.3868
L188.5735 196.5297
" />
<path d="M188.5735 196.5297
L188.3592 196.6011
" />
<path d="M188.3592 196.6011
L188.0021 196.6011
" />
<path d="M189.5021 196.4582
L189.5735 196.5297
" />
<path d="M189.5735 196.5297
L189.5021 196.6011
" />
<path d="M189.5021 196.6011
L189.4307 196.5297
" />
<path d="M189.4307 196.5297
L189.5021 196.4582
" />
<path d="M189.5021 196.4582
L189.5021 196.6011
" />
<path d="M190.1450 196.1725
L190.8593 196.1725
" />
<path d="M190.0021 196.6011
L190.5021 195.1011
" />
<path d="M190.5021 195.1011
L191.0021 196.6011
" />
<path d="M191.5021 196.4582
L191.5735 196.5297
" />
<path d="M191.5735 196.5297
L191.5021 196.6011
" />
<path d="M191.5021 196.6011
L191.4307 196.5297
" />
<path d="M191.4307 196.5297
L191.5021 196.4582
" />
<path d="M191.5021 196.4582
L191.5021 196.6011
" />
<path d="M194.5022 196.6011
L194.5022 195.1011
" />
<path d="M194.6451 196.0297
L195.0736 196.6011
" />
<path d="M195.0736 195.6011
L194.5022 196.1725
" />
<path d="M195.7165 196.6011
L195.7165 195.6011
" />
<path d="M195.7165 195.1011
L195.6451 195.1725
" />
<path d="M195.6451 195.1725
L195.7165 195.2439
" />
<path d="M195.7165 195.2439
L195.7879 195.1725
" />
<path d="M195.7879 195.1725
L195.7165 195.1011
" />
<path d="M195.7165 195.1011
L195.7165 195.2439
" />
<path d="M197.0737 196.5297
L196.9308 196.6011
" />
<path d="M196.9308 196.6011
L196.6451 196.6011
" />
<path d="M196.6451 196.6011
L196.5022 196.5297
" />
<path d="M196.5022 196.5297
L196.4308 196.4582
" />
<path d="M196.4308 196.4582
L196.3594 196.3154
" />
<path d="M196.3594 196.3154
L196.3594 195.8868
" />
<path d="M196.3594 195.8868
L196.4308 195.7439
" />
<path d="M196.4308 195.7439
L196.5022 195.6725
" />
<path d="M196.5022 195.6725
L196.6451 195.6011
" />
<path d="M196.6451 195.6011
L196.9308 195.6011
" />
<path d="M196.9308 195.6011
L197.0737 195.6725
" />
<path d="M198.3594 196.6011
L198.3594 195.8154
" />
<path d="M198.3594 195.8154
L198.2879 195.6725
" />
<path d="M198.2879 195.6725
L198.1451 195.6011
" />
<path d="M198.1451 195.6011
L197.8594 195.6011
" />
<path d="M197.8594 195.6011
L197.7165 195.6725
" />
<path d="M198.3594 196.5297
L198.2165 196.6011
" />
<path d="M198.2165 196.6011
L197.8594 196.6011
" />
<path d="M197.8594 196.6011
L197.7165 196.5297
" />
<path d="M197.7165 196.5297
L197.6451 196.3868
" />
<path d="M197.6451 196.3868
L197.6451 196.2439
" />
<path d="M197.6451 196.2439
L197.7165 196.1011
" />
<path d="M197.7165 196.1011
L197.8594 196.0297
" />
<path d="M197.8594 196.0297
L198.2165 196.0297
" />
<path d="M198.2165 196.0297
L198.3594 195.9582
" />
<path d="M199.7165 196.6011
L199.7165 195.1011
" />
<path d="M199.7165 196.5297
L199.5736 196.6011
" />
<path d="M199.5736 196.6011
L199.2879 196.6011
" />
<path d="M199.2879 196.6011
L199.1450 196.5297
" />
<path d="M199.1450 196.5297
L199.0736 196.4582
" />
<path d="M199.0736 196.4582
L199.0022 196.3154
" />
<path d="M199.0022 196.3154
L199.0022 195.8868
" />
<path d="M199.0022 195.8868
L199.0736 195.7439
" />
<path d="M199.0736 195.7439
L199.1450 195.6725
" />
<path d="M199.1450 195.6725
L199.2879 195.6011
" />
<path d="M199.2879 195.6011
L199.5736 195.6011
" />
<path d="M199.5736 195.6011
L199.7165 195.6725
" />
<path d="M201.4307 195.1011
L202.4307 195.1011
" />
<path d="M202.4307 195.1011
L201.7879 196.6011
" />
<path d="M203.0022 196.4582
L203.0736 196.5297
" />
<path d="M203.0736 196.5297
L203.0022 196.6011
" />
<path d="M203.0022 196.6011
L202.9308 196.5297
" />
<path d="M202.9308 196.5297
L203.0022 196.4582
" />
<path d="M203.0022 196.4582
L203.0022 196.6011
" />
<path d="M204.0022 195.1011
L204.1451 195.1011
" />
<path d="M204.1451 195.1011
L204.2879 195.1725
" />
<path d="M204.2879 195.1725
L204.3594 195.2439
" />
<path d="M204.3594 195.2439
L204.4308 195.3868
" />
<path d="M204.4308 195.3868
L204.5022 195.6725
" />
<path d="M204.5022 195.6725
L204.5022 196.0297
" />
<path d="M204.5022 196.0297
L204.4308 196.3154
" />
<path d="M204.4308 196.3154
L204.3594 196.4582
" />
<path d="M204.3594 196.4582
L204.2879 196.5297
" />
<path d="M204.2879 196.5297
L204.1451 196.6011
" />
<path d="M204.1451 196.6011
L204.0022 196.6011
" />
<path d="M204.0022 196.6011
L203.8594 196.5297
" />
<path d="M203.8594 196.5297
L203.7879 196.4582
" />
<path d="M203.7879 196.4582
L203.7165 196.3154
" />
<path d="M203.7165 196.3154
L203.6451 196.0297
" />
<path d="M203.6451 196.0297
L203.6451 195.6725
" />
<path d="M203.6451 195.6725
L203.7165 195.3868
" />
<path d="M203.7165 195.3868
L203.7879 195.2439
" />
<path d="M203.7879 195.2439
L203.8594 195.1725
" />
<path d="M203.8594 195.1725
L204.0022 195.1011
" />
<path d="M205.1451 196.4582
L205.2165 196.5297
" />
<path d="M205.2165 196.5297
L205.1451 196.6011
" />
<path d="M205.1451 196.6011
L205.0737 196.5297
" />
<path d="M205.0737 196.5297
L205.1451 196.4582
" />
<path d="M205.1451 196.4582
L205.1451 196.6011
" />
<path d="M205.7880 195.2439
L205.8594 195.1725
" />
<path d="M205.8594 195.1725
L206.0023 195.1011
" />
<path d="M206.0023 195.1011
L206.3594 195.1011
" />
<path d="M206.3594 195.1011
L206.5023 195.1725
" />
<path d="M206.5023 195.1725
L206.5737 195.2439
" />
<path d="M206.5737 195.2439
L206.6451 195.3868
" />
<path d="M206.6451 195.3868
L206.6451 195.5297
" />
<path d="M206.6451 195.5297
L206.5737 195.7439
" />
<path d="M206.5737 195.7439
L205.7165 196.6011
" />
<path d="M205.7165 196.6011
L206.6451 196.6011
" />
</g><path d="M177.0022 191.5072
L285.0022 191.5072
" />
</g>
<g style="fill:#840000; fill-opacity:0.0; 
stroke:#840000; stroke-width:0.3000; stroke-opacity:1; 
stroke-linecap:round; stroke-linejoin:round;">
<text x="263.0022" y="193.8572"
textLength="6.2358" font-size="2.0000" lengthAdjust="spacingAndGlyphs"
text-anchor="start" opacity="0">Rev: </text>
<g class="stroked-text"><desc>Rev: </desc>
<path d="M264.2164 193.8011
L263.7164 193.0868
" />
<path d="M263.3593 193.8011
L263.3593 192.3011
" />
<path d="M263.3593 192.3011
L263.9307 192.3011
" />
<path d="M263.9307 192.3011
L264.0736 192.3725
" />
<path d="M264.0736 192.3725
L264.1450 192.4439
" />
<path d="M264.1450 192.4439
L264.2164 192.5868
" />
<path d="M264.2164 192.5868
L264.2164 192.8011
" />
<path d="M264.2164 192.8011
L264.1450 192.9439
" />
<path d="M264.1450 192.9439
L264.0736 193.0154
" />
<path d="M264.0736 193.0154
L263.9307 193.0868
" />
<path d="M263.9307 193.0868
L263.3593 193.0868
" />
<path d="M265.4307 193.7297
L265.2879 193.8011
" />
<path d="M265.2879 193.8011
L265.0022 193.8011
" />
<path d="M265.0022 193.8011
L264.8593 193.7297
" />
<path d="M264.8593 193.7297
L264.7879 193.5868
" />
<path d="M264.7879 193.5868
L264.7879 193.0154
" />
<path d="M264.7879 193.0154
L264.8593 192.8725
" />
<path d="M264.8593 192.8725
L265.0022 192.8011
" />
<path d="M265.0022 192.8011
L265.2879 192.8011
" />
<path d="M265.2879 192.8011
L265.4307 192.8725
" />
<path d="M265.4307 192.8725
L265.5022 193.0154
" />
<path d="M265.5022 193.0154
L265.5022 193.1582
" />
<path d="M265.5022 193.1582
L264.7879 193.3011
" />
<path d="M266.0021 192.8011
L266.3593 193.8011
" />
<path d="M266.3593 193.8011
L266.7164 192.8011
" />
<path d="M267.2879 193.6582
L267.3593 193.7297
" />
<path d="M267.3593 193.7297
L267.2879 193.8011
" />
<path d="M267.2879 193.8011
L267.2165 193.7297
" />
<path d="M267.2165 193.7297
L267.2879 193.6582
" />
<path d="M267.2879 193.6582
L267.2879 193.8011
" />
<path d="M267.2879 192.8725
L267.3593 192.9439
" />
<path d="M267.3593 192.9439
L267.2879 193.0154
" />
<path d="M267.2879 193.0154
L267.2165 192.9439
" />
<path d="M267.2165 192.9439
L267.2879 192.8725
" />
<path d="M267.2879 192.8725
L267.2879 193.0154
" />
</g></g>
<g style="fill:#840000; fill-opacity:0.0; 
stroke:#840000; stroke-width:0.1524; stroke-opacity:1; 
stroke-linecap:round; stroke-linejoin:round;">
<text x="178.0022" y="193.8572"
textLength="9.2954" font-size="2.0000" lengthAdjust="spacingAndGlyphs"
text-anchor="start" opacity="0">Size: A4</text>
<g class="stroked-text"><desc>Size: A4</desc>
<path d="M178.2879 193.7297
L178.5022 193.8011
" />
<path d="M178.5022 193.8011
L178.8593 193.8011
" />
<path d="M178.8593 193.8011
L179.0022 193.7297
" />
<path d="M179.0022 193.7297
L179.0736 193.6582
" />
<path d="M179.0736 193.6582
L179.1450 193.5154
" />
<path d="M179.1450 193.5154
L179.1450 193.3725
" />
<path d="M179.1450 193.3725
L179.0736 193.2297
" />
<path d="M179.0736 193.2297
L179.0022 193.1582
" />
<path d="M179.0022 193.1582
L178.8593 193.0868
" />
<path d="M178.8593 193.0868
L178.5736 193.0154
" />
<path d="M178.5736 193.0154
L178.4307 192.9439
" />
<path d="M178.4307 192.9439
L178.3593 192.8725
" />
<path d="M178.3593 192.8725
L178.2879 192.7297
" />
<path d="M178.2879 192.7297
L178.2879 192.5868
" />
<path d="M178.2879 192.5868
L178.3593 192.4439
" />
<path d="M178.3593 192.4439
L178.4307 192.3725
" />
<path d="M178.4307 192.3725
L178.5736 192.3011
" />
<path d="M178.5736 192.3011
L178.9307 192.3011
" />
<path d="M178.9307 192.3011
L179.1450 192.3725
" />
<path d="M179.7879 193.8011
L179.7879 192.8011
" />
<path d="M179.7879 192.3011
L179.7165 192.3725
" />
<path d="M179.7165 192.3725
L179.7879 192.4439
" />
<path d="M179.7879 192.4439
L179.8593 192.3725
" />
<path d="M179.8593 192.3725
L179.7879 192.3011
" />
<path d="M179.7879 192.3011
L179.7879 192.4439
" />
<path d="M180.3593 192.8011
L181.1451 192.8011
" />
<path d="M181.1451 192.8011
L180.3593 193.8011
" />
<path d="M180.3593 193.8011
L181.1451 193.8011
" />
<path d="M182.2879 193.7297
L182.1451 193.8011
" />
<path d="M182.1451 193.8011
L181.8594 193.8011
" />
<path d="M181.8594 193.8011
L181.7165 193.7297
" />
<path d="M181.7165 193.7297
L181.6451 193.5868
" />
<path d="M181.6451 193.5868
L181.6451 193.0154
" />
<path d="M181.6451 193.0154
L181.7165 192.8725
" />
<path d="M181.7165 192.8725
L181.8594 192.8011
" />
<path d="M181.8594 192.8011
L182.1451 192.8011
" />
<path d="M182.1451 192.8011
L182.2879 192.8725
" />
<path d="M182.2879 192.8725
L182.3594 193.0154
" />
<path d="M182.3594 193.0154
L182.3594 193.1582
" />
<path d="M182.3594 193.1582
L181.6451 193.3011
" />
<path d="M183.0022 193.6582
L183.0736 193.7297
" />
<path d="M183.0736 193.7297
L183.0022 193.8011
" />
<path d="M183.0022 193.8011
L182.9308 193.7297
" />
<path d="M182.9308 193.7297
L183.0022 193.6582
" />
<path d="M183.0022 193.6582
L183.0022 193.8011
" />
<path d="M183.0022 192.8725
L183.0736 192.9439
" />
<path d="M183.0736 192.9439
L183.0022 193.0154
" />
<path d="M183.0022 193.0154
L182.9308 192.9439
" />
<path d="M182.9308 192.9439
L183.0022 192.8725
" />
<path d="M183.0022 192.8725
L183.0022 193.0154
" />
<path d="M184.7880 193.3725
L185.5023 193.3725
" />
<path d="M184.6451 193.8011
L185.1451 192.3011
" />
<path d="M185.1451 192.3011
L185.6451 193.8011
" />
<path d="M186.7880 192.8011
L186.7880 193.8011
" />
<path d="M186.4308 192.2297
L186.0737 193.3011
" />
<path d="M186.0737 193.3011
L187.0022 193.3011
" />
</g><text x="263.0022" y="196.6572"
textLength="8.4382" font-size="2.0000" lengthAdjust="spacingAndGlyphs"
text-anchor="start" opacity="0">Id: 1/3</text>
<g class="stroked-text"><desc>Id: 1/3</desc>
<path d="M263.3593 196.6011
L263.3593 195.1011
" />
<path d="M264.7165 196.6011
L264.7165 195.1011
" />
<path d="M264.7165 196.5297
L264.5736 196.6011
" />
<path d="M264.5736 196.6011
L264.2879 196.6011
" />
<path d="M264.2879 196.6011
L264.1450 196.5297
" />
<path d="M264.1450 196.5297
L264.0736 196.4582
" />
<path d="M264.0736 196.4582
L264.0022 196.3154
" />
<path d="M264.0022 196.3154
L264.0022 195.8868
" />
<path d="M264.0022 195.8868
L264.0736 195.7439
" />
<path d="M264.0736 195.7439
L264.1450 195.6725
" />
<path d="M264.1450 195.6725
L264.2879 195.6011
" />
<path d="M264.2879 195.6011
L264.5736 195.6011
" />
<path d="M264.5736 195.6011
L264.7165 195.6725
" />
<path d="M265.4307 196.4582
L265.5021 196.5297
" />
<path d="M265.5021 196.5297
L265.4307 196.6011
" />
<path d="M265.4307 196.6011
L265.3593 196.5297
" />
<path d="M265.3593 196.5297
L265.4307 196.4582
" />
<path d="M265.4307 196.4582
L265.4307 196.6011
" />
<path d="M265.4307 195.6725
L265.5021 195.7439
" />
<path d="M265.5021 195.7439
L265.4307 195.8154
" />
<path d="M265.4307 195.8154
L265.3593 195.7439
" />
<path d="M265.3593 195.7439
L265.4307 195.6725
" />
<path d="M265.4307 195.6725
L265.4307 195.8154
" />
<path d="M268.0736 196.6011
L267.2165 196.6011
" />
<path d="M267.6450 196.6011
L267.6450 195.1011
" />
<path d="M267.6450 195.1011
L267.5022 195.3154
" />
<path d="M267.5022 195.3154
L267.3593 195.4582
" />
<path d="M267.3593 195.4582
L267.2165 195.5297
" />
<path d="M269.7879 195.0297
L268.5022 196.9582
" />
<path d="M270.1450 195.1011
L271.0736 195.1011
" />
<path d="M271.0736 195.1011
L270.5736 195.6725
" />
<path d="M270.5736 195.6725
L270.7879 195.6725
" />
<path d="M270.7879 195.6725
L270.9308 195.7439
" />
<path d="M270.9308 195.7439
L271.0022 195.8154
" />
<path d="M271.0022 195.8154
L271.0736 195.9582
" />
<path d="M271.0736 195.9582
L271.0736 196.3154
" />
<path d="M271.0736 196.3154
L271.0022 196.4582
" />
<path d="M271.0022 196.4582
L270.9308 196.5297
" />
<path d="M270.9308 196.5297
L270.7879 196.6011
" />
<path d="M270.7879 196.6011
L270.3593 196.6011
" />
<path d="M270.3593 196.6011
L270.2165 196.5297
" />
<path d="M270.2165 196.5297
L270.1450 196.4582
" />
</g><path d="M177.0022 187.5072
L285.0022 187.5072
" />
</g>
<g style="fill:#840000; fill-opacity:0.0; 
stroke:#840000; stroke-width:0.4000; stroke-opacity:1; 
stroke-linecap:round; stroke-linejoin:round;">
<text x="178.0022" y="190.3072"
textLength="49.7192" font-size="2.6666" lengthAdjust="spacingAndGlyphs"
text-anchor="start" opacity="0">Title: RC CPR-nummer validator</text>
<g class="stroked-text"><desc>Title: RC CPR-nummer validator</desc>
<path d="M178.4307 188.2324
L179.5736 188.2324
" />
<path d="M178.7522 190.2324
L179.0022 188.2324
" />
<path d="M179.9783 190.2324
L180.1450 188.8991
" />
<path d="M180.2283 188.2324
L180.1212 188.3276
" />
<path d="M180.1212 188.3276
L180.2045 188.4229
" />
<path d="M180.2045 188.4229
L180.3117 188.3276
" />
<path d="M180.3117 188.3276
L180.2283 188.2324
" />
<path d="M180.2283 188.2324
L180.2045 188.4229
" />
<path d="M180.7998 188.8991
L181.5617 188.8991
" />
<path d="M181.1688 188.2324
L180.9546 189.9467
" />
<path d="M180.9546 189.9467
L181.0260 190.1372
" />
<path d="M181.0260 190.1372
L181.2046 190.2324
" />
<path d="M181.2046 190.2324
L181.3950 190.2324
" />
<path d="M182.3356 190.2324
L182.1570 190.1372
" />
<path d="M182.1570 190.1372
L182.0856 189.9467
" />
<path d="M182.0856 189.9467
L182.2998 188.2324
" />
<path d="M183.8593 190.1372
L183.6570 190.2324
" />
<path d="M183.6570 190.2324
L183.2760 190.2324
" />
<path d="M183.2760 190.2324
L183.0974 190.1372
" />
<path d="M183.0974 190.1372
L183.0260 189.9467
" />
<path d="M183.0260 189.9467
L183.1213 189.1848
" />
<path d="M183.1213 189.1848
L183.2403 188.9943
" />
<path d="M183.2403 188.9943
L183.4427 188.8991
" />
<path d="M183.4427 188.8991
L183.8236 188.8991
" />
<path d="M183.8236 188.8991
L184.0022 188.9943
" />
<path d="M184.0022 188.9943
L184.0736 189.1848
" />
<path d="M184.0736 189.1848
L184.0498 189.3752
" />
<path d="M184.0498 189.3752
L183.0736 189.5657
" />
<path d="M184.8117 190.0419
L184.8951 190.1372
" />
<path d="M184.8951 190.1372
L184.7879 190.2324
" />
<path d="M184.7879 190.2324
L184.7046 190.1372
" />
<path d="M184.7046 190.1372
L184.8117 190.0419
" />
<path d="M184.8117 190.0419
L184.7879 190.2324
" />
<path d="M184.9427 188.9943
L185.0260 189.0895
" />
<path d="M185.0260 189.0895
L184.9189 189.1848
" />
<path d="M184.9189 189.1848
L184.8356 189.0895
" />
<path d="M184.8356 189.0895
L184.9427 188.9943
" />
<path d="M184.9427 188.9943
L184.9189 189.1848
" />
<path d="M188.3951 190.2324
L187.8475 189.2800
" />
<path d="M187.2522 190.2324
L187.5022 188.2324
" />
<path d="M187.5022 188.2324
L188.2641 188.2324
" />
<path d="M188.2641 188.2324
L188.4427 188.3276
" />
<path d="M188.4427 188.3276
L188.5260 188.4229
" />
<path d="M188.5260 188.4229
L188.5975 188.6133
" />
<path d="M188.5975 188.6133
L188.5618 188.8991
" />
<path d="M188.5618 188.8991
L188.4427 189.0895
" />
<path d="M188.4427 189.0895
L188.3356 189.1848
" />
<path d="M188.3356 189.1848
L188.1332 189.2800
" />
<path d="M188.1332 189.2800
L187.3713 189.2800
" />
<path d="M190.4070 190.0419
L190.2999 190.1372
" />
<path d="M190.2999 190.1372
L190.0022 190.2324
" />
<path d="M190.0022 190.2324
L189.8118 190.2324
" />
<path d="M189.8118 190.2324
L189.5380 190.1372
" />
<path d="M189.5380 190.1372
L189.3713 189.9467
" />
<path d="M189.3713 189.9467
L189.2999 189.7562
" />
<path d="M189.2999 189.7562
L189.2522 189.3752
" />
<path d="M189.2522 189.3752
L189.2880 189.0895
" />
<path d="M189.2880 189.0895
L189.4308 188.7086
" />
<path d="M189.4308 188.7086
L189.5499 188.5181
" />
<path d="M189.5499 188.5181
L189.7641 188.3276
" />
<path d="M189.7641 188.3276
L190.0618 188.2324
" />
<path d="M190.0618 188.2324
L190.2522 188.2324
" />
<path d="M190.2522 188.2324
L190.5261 188.3276
" />
<path d="M190.5261 188.3276
L190.6094 188.4229
" />
<path d="M193.9189 190.0419
L193.8118 190.1372
" />
<path d="M193.8118 190.1372
L193.5141 190.2324
" />
<path d="M193.5141 190.2324
L193.3237 190.2324
" />
<path d="M193.3237 190.2324
L193.0499 190.1372
" />
<path d="M193.0499 190.1372
L192.8832 189.9467
" />
<path d="M192.8832 189.9467
L192.8118 189.7562
" />
<path d="M192.8118 189.7562
L192.7641 189.3752
" />
<path d="M192.7641 189.3752
L192.7999 189.0895
" />
<path d="M192.7999 189.0895
L192.9427 188.7086
" />
<path d="M192.9427 188.7086
L193.0618 188.5181
" />
<path d="M193.0618 188.5181
L193.2760 188.3276
" />
<path d="M193.2760 188.3276
L193.5737 188.2324
" />
<path d="M193.5737 188.2324
L193.7641 188.2324
" />
<path d="M193.7641 188.2324
L194.0380 188.3276
" />
<path d="M194.0380 188.3276
L194.1213 188.4229
" />
<path d="M194.7403 190.2324
L194.9903 188.2324
" />
<path d="M194.9903 188.2324
L195.7522 188.2324
" />
<path d="M195.7522 188.2324
L195.9308 188.3276
" />
<path d="M195.9308 188.3276
L196.0141 188.4229
" />
<path d="M196.0141 188.4229
L196.0856 188.6133
" />
<path d="M196.0856 188.6133
L196.0499 188.8991
" />
<path d="M196.0499 188.8991
L195.9308 189.0895
" />
<path d="M195.9308 189.0895
L195.8237 189.1848
" />
<path d="M195.8237 189.1848
L195.6213 189.2800
" />
<path d="M195.6213 189.2800
L194.8594 189.2800
" />
<path d="M197.8713 190.2324
L197.3237 189.2800
" />
<path d="M196.7284 190.2324
L196.9784 188.2324
" />
<path d="M196.9784 188.2324
L197.7403 188.2324
" />
<path d="M197.7403 188.2324
L197.9189 188.3276
" />
<path d="M197.9189 188.3276
L198.0022 188.4229
" />
<path d="M198.0022 188.4229
L198.0737 188.6133
" />
<path d="M198.0737 188.6133
L198.0380 188.8991
" />
<path d="M198.0380 188.8991
L197.9189 189.0895
" />
<path d="M197.9189 189.0895
L197.8118 189.1848
" />
<path d="M197.8118 189.1848
L197.6094 189.2800
" />
<path d="M197.6094 189.2800
L196.8475 189.2800
" />
<path d="M198.8118 189.4705
L200.3356 189.4705
" />
<path d="M201.3594 188.8991
L201.1927 190.2324
" />
<path d="M201.3356 189.0895
L201.4427 188.9943
" />
<path d="M201.4427 188.9943
L201.6451 188.8991
" />
<path d="M201.6451 188.8991
L201.9308 188.8991
" />
<path d="M201.9308 188.8991
L202.1094 188.9943
" />
<path d="M202.1094 188.9943
L202.1808 189.1848
" />
<path d="M202.1808 189.1848
L202.0499 190.2324
" />
<path d="M204.0141 188.8991
L203.8475 190.2324
" />
<path d="M203.1570 188.8991
L203.0261 189.9467
" />
<path d="M203.0261 189.9467
L203.0975 190.1372
" />
<path d="M203.0975 190.1372
L203.2761 190.2324
" />
<path d="M203.2761 190.2324
L203.5618 190.2324
" />
<path d="M203.5618 190.2324
L203.7641 190.1372
" />
<path d="M203.7641 190.1372
L203.8713 190.0419
" />
<path d="M204.7879 190.2324
L204.9546 188.8991
" />
<path d="M204.9308 189.0895
L205.0379 188.9943
" />
<path d="M205.0379 188.9943
L205.2403 188.8991
" />
<path d="M205.2403 188.8991
L205.5260 188.8991
" />
<path d="M205.5260 188.8991
L205.7046 188.9943
" />
<path d="M205.7046 188.9943
L205.7760 189.1848
" />
<path d="M205.7760 189.1848
L205.6451 190.2324
" />
<path d="M205.7760 189.1848
L205.8951 188.9943
" />
<path d="M205.8951 188.9943
L206.0975 188.8991
" />
<path d="M206.0975 188.8991
L206.3832 188.8991
" />
<path d="M206.3832 188.8991
L206.5617 188.9943
" />
<path d="M206.5617 188.9943
L206.6332 189.1848
" />
<path d="M206.6332 189.1848
L206.5022 190.2324
" />
<path d="M207.4427 190.2324
L207.6094 188.8991
" />
<path d="M207.5856 189.0895
L207.6927 188.9943
" />
<path d="M207.6927 188.9943
L207.8951 188.8991
" />
<path d="M207.8951 188.8991
L208.1808 188.8991
" />
<path d="M208.1808 188.8991
L208.3594 188.9943
" />
<path d="M208.3594 188.9943
L208.4308 189.1848
" />
<path d="M208.4308 189.1848
L208.2999 190.2324
" />
<path d="M208.4308 189.1848
L208.5499 188.9943
" />
<path d="M208.5499 188.9943
L208.7523 188.8991
" />
<path d="M208.7523 188.8991
L209.0380 188.8991
" />
<path d="M209.0380 188.8991
L209.2165 188.9943
" />
<path d="M209.2165 188.9943
L209.2880 189.1848
" />
<path d="M209.2880 189.1848
L209.1570 190.2324
" />
<path d="M210.8713 190.1372
L210.6690 190.2324
" />
<path d="M210.6690 190.2324
L210.2880 190.2324
" />
<path d="M210.2880 190.2324
L210.1094 190.1372
" />
<path d="M210.1094 190.1372
L210.0380 189.9467
" />
<path d="M210.0380 189.9467
L210.1333 189.1848
" />
<path d="M210.1333 189.1848
L210.2523 188.9943
" />
<path d="M210.2523 188.9943
L210.4547 188.8991
" />
<path d="M210.4547 188.8991
L210.8356 188.8991
" />
<path d="M210.8356 188.8991
L211.0142 188.9943
" />
<path d="M211.0142 188.9943
L211.0856 189.1848
" />
<path d="M211.0856 189.1848
L211.0618 189.3752
" />
<path d="M211.0618 189.3752
L210.0856 189.5657
" />
<path d="M211.7999 190.2324
L211.9666 188.8991
" />
<path d="M211.9190 189.2800
L212.0380 189.0895
" />
<path d="M212.0380 189.0895
L212.1452 188.9943
" />
<path d="M212.1452 188.9943
L212.3476 188.8991
" />
<path d="M212.3476 188.8991
L212.5380 188.8991
" />
<path d="M214.5261 188.8991
L214.8357 190.2324
" />
<path d="M214.8357 190.2324
L215.4785 188.8991
" />
<path d="M216.9190 190.2324
L217.0499 189.1848
" />
<path d="M217.0499 189.1848
L216.9785 188.9943
" />
<path d="M216.9785 188.9943
L216.7999 188.8991
" />
<path d="M216.7999 188.8991
L216.4190 188.8991
" />
<path d="M216.4190 188.8991
L216.2166 188.9943
" />
<path d="M216.9309 190.1372
L216.7285 190.2324
" />
<path d="M216.7285 190.2324
L216.2523 190.2324
" />
<path d="M216.2523 190.2324
L216.0737 190.1372
" />
<path d="M216.0737 190.1372
L216.0023 189.9467
" />
<path d="M216.0023 189.9467
L216.0261 189.7562
" />
<path d="M216.0261 189.7562
L216.1452 189.5657
" />
<path d="M216.1452 189.5657
L216.3476 189.4705
" />
<path d="M216.3476 189.4705
L216.8237 189.4705
" />
<path d="M216.8237 189.4705
L217.0261 189.3752
" />
<path d="M218.1452 190.2324
L217.9666 190.1372
" />
<path d="M217.9666 190.1372
L217.8952 189.9467
" />
<path d="M217.8952 189.9467
L218.1094 188.2324
" />
<path d="M218.8951 190.2324
L219.0618 188.8991
" />
<path d="M219.1451 188.2324
L219.0380 188.3276
" />
<path d="M219.0380 188.3276
L219.1213 188.4229
" />
<path d="M219.1213 188.4229
L219.2285 188.3276
" />
<path d="M219.2285 188.3276
L219.1451 188.2324
" />
<path d="M219.1451 188.2324
L219.1213 188.4229
" />
<path d="M220.6928 190.2324
L220.9428 188.2324
" />
<path d="M220.7047 190.1372
L220.5023 190.2324
" />
<path d="M220.5023 190.2324
L220.1214 190.2324
" />
<path d="M220.1214 190.2324
L219.9428 190.1372
" />
<path d="M219.9428 190.1372
L219.8594 190.0419
" />
<path d="M219.8594 190.0419
L219.7880 189.8514
" />
<path d="M219.7880 189.8514
L219.8594 189.2800
" />
<path d="M219.8594 189.2800
L219.9785 189.0895
" />
<path d="M219.9785 189.0895
L220.0856 188.9943
" />
<path d="M220.0856 188.9943
L220.2880 188.8991
" />
<path d="M220.2880 188.8991
L220.6690 188.8991
" />
<path d="M220.6690 188.8991
L220.8475 188.9943
" />
<path d="M222.4904 190.2324
L222.6213 189.1848
" />
<path d="M222.6213 189.1848
L222.5499 188.9943
" />
<path d="M222.5499 188.9943
L222.3713 188.8991
" />
<path d="M222.3713 188.8991
L221.9904 188.8991
" />
<path d="M221.9904 188.8991
L221.7880 188.9943
" />
<path d="M222.5023 190.1372
L222.2999 190.2324
" />
<path d="M222.2999 190.2324
L221.8237 190.2324
" />
<path d="M221.8237 190.2324
L221.6451 190.1372
" />
<path d="M221.6451 190.1372
L221.5737 189.9467
" />
<path d="M221.5737 189.9467
L221.5975 189.7562
" />
<path d="M221.5975 189.7562
L221.7166 189.5657
" />
<path d="M221.7166 189.5657
L221.9190 189.4705
" />
<path d="M221.9190 189.4705
L222.3951 189.4705
" />
<path d="M222.3951 189.4705
L222.5975 189.3752
" />
<path d="M223.3118 188.8991
L224.0737 188.8991
" />
<path d="M223.6808 188.2324
L223.4666 189.9467
" />
<path d="M223.4666 189.9467
L223.5380 190.1372
" />
<path d="M223.5380 190.1372
L223.7166 190.2324
" />
<path d="M223.7166 190.2324
L223.9070 190.2324
" />
<path d="M224.8476 190.2324
L224.6690 190.1372
" />
<path d="M224.6690 190.1372
L224.5856 190.0419
" />
<path d="M224.5856 190.0419
L224.5142 189.8514
" />
<path d="M224.5142 189.8514
L224.5856 189.2800
" />
<path d="M224.5856 189.2800
L224.7047 189.0895
" />
<path d="M224.7047 189.0895
L224.8118 188.9943
" />
<path d="M224.8118 188.9943
L225.0142 188.8991
" />
<path d="M225.0142 188.8991
L225.2999 188.8991
" />
<path d="M225.2999 188.8991
L225.4785 188.9943
" />
<path d="M225.4785 188.9943
L225.5618 189.0895
" />
<path d="M225.5618 189.0895
L225.6333 189.2800
" />
<path d="M225.6333 189.2800
L225.5618 189.8514
" />
<path d="M225.5618 189.8514
L225.4428 190.0419
" />
<path d="M225.4428 190.0419
L225.3356 190.1372
" />
<path d="M225.3356 190.1372
L225.1333 190.2324
" />
<path d="M225.1333 190.2324
L224.8476 190.2324
" />
<path d="M226.3594 190.2324
L226.5261 188.8991
" />
<path d="M226.4785 189.2800
L226.5975 189.0895
" />
<path d="M226.5975 189.0895
L226.7047 188.9943
" />
<path d="M226.7047 188.9943
L226.9071 188.8991
" />
<path d="M226.9071 188.8991
L227.0975 188.8991
" />
</g></g>
<g style="fill:#840000; fill-opacity:0.0; 
stroke:#840000; stroke-width:0.1524; stroke-opacity:1; 
stroke-linecap:round; stroke-linejoin:round;">
<text x="178.0022" y="186.4572"
textLength="32.7238" font-size="2.0000" lengthAdjust="spacingAndGlyphs"
text-anchor="start" opacity="0">File: RC_CPRcheck.kicad_sch</text>
<g class="stroked-text"><desc>File: RC_CPRcheck.kicad_sch</desc>
<path d="M178.8593 185.6154
L178.3593 185.6154
" />
<path d="M178.3593 186.4011
L178.3593 184.9011
" />
<path d="M178.3593 184.9011
L179.0736 184.9011
" />
<path d="M179.6450 186.4011
L179.6450 185.4011
" />
<path d="M179.6450 184.9011
L179.5736 184.9725
" />
<path d="M179.5736 184.9725
L179.6450 185.0439
" />
<path d="M179.6450 185.0439
L179.7164 184.9725
" />
<path d="M179.7164 184.9725
L179.6450 184.9011
" />
<path d="M179.6450 184.9011
L179.6450 185.0439
" />
<path d="M180.5736 186.4011
L180.4307 186.3297
" />
<path d="M180.4307 186.3297
L180.3593 186.1868
" />
<path d="M180.3593 186.1868
L180.3593 184.9011
" />
<path d="M181.7164 186.3297
L181.5736 186.4011
" />
<path d="M181.5736 186.4011
L181.2879 186.4011
" />
<path d="M181.2879 186.4011
L181.1450 186.3297
" />
<path d="M181.1450 186.3297
L181.0736 186.1868
" />
<path d="M181.0736 186.1868
L181.0736 185.6154
" />
<path d="M181.0736 185.6154
L181.1450 185.4725
" />
<path d="M181.1450 185.4725
L181.2879 185.4011
" />
<path d="M181.2879 185.4011
L181.5736 185.4011
" />
<path d="M181.5736 185.4011
L181.7164 185.4725
" />
<path d="M181.7164 185.4725
L181.7879 185.6154
" />
<path d="M181.7879 185.6154
L181.7879 185.7582
" />
<path d="M181.7879 185.7582
L181.0736 185.9011
" />
<path d="M182.4307 186.2582
L182.5021 186.3297
" />
<path d="M182.5021 186.3297
L182.4307 186.4011
" />
<path d="M182.4307 186.4011
L182.3593 186.3297
" />
<path d="M182.3593 186.3297
L182.4307 186.2582
" />
<path d="M182.4307 186.2582
L182.4307 186.4011
" />
<path d="M182.4307 185.4725
L182.5021 185.5439
" />
<path d="M182.5021 185.5439
L182.4307 185.6154
" />
<path d="M182.4307 185.6154
L182.3593 185.5439
" />
<path d="M182.3593 185.5439
L182.4307 185.4725
" />
<path d="M182.4307 185.4725
L182.4307 185.6154
" />
<path d="M185.1450 186.4011
L184.6450 185.6868
" />
<path d="M184.2879 186.4011
L184.2879 184.9011
" />
<path d="M184.2879 184.9011
L184.8593 184.9011
" />
<path d="M184.8593 184.9011
L185.0022 184.9725
" />
<path d="M185.0022 184.9725
L185.0736 185.0439
" />
<path d="M185.0736 185.0439
L185.1450 185.1868
" />
<path d="M185.1450 185.1868
L185.1450 185.4011
" />
<path d="M185.1450 185.4011
L185.0736 185.5439
" />
<path d="M185.0736 185.5439
L185.0022 185.6154
" />
<path d="M185.0022 185.6154
L184.8593 185.6868
" />
<path d="M184.8593 185.6868
L184.2879 185.6868
" />
<path d="M186.6450 186.2582
L186.5736 186.3297
" />
<path d="M186.5736 186.3297
L186.3593 186.4011
" />
<path d="M186.3593 186.4011
L186.2165 186.4011
" />
<path d="M186.2165 186.4011
L186.0022 186.3297
" />
<path d="M186.0022 186.3297
L185.8593 186.1868
" />
<path d="M185.8593 186.1868
L185.7879 186.0439
" />
<path d="M185.7879 186.0439
L185.7165 185.7582
" />
<path d="M185.7165 185.7582
L185.7165 185.5439
" />
<path d="M185.7165 185.5439
L185.7879 185.2582
" />
<path d="M185.7879 185.2582
L185.8593 185.1154
" />
<path d="M185.8593 185.1154
L186.0022 184.9725
" />
<path d="M186.0022 184.9725
L186.2165 184.9011
" />
<path d="M186.2165 184.9011
L186.3593 184.9011
" />
<path d="M186.3593 184.9011
L186.5736 184.9725
" />
<path d="M186.5736 184.9725
L186.6450 185.0439
" />
<path d="M186.9308 186.5439
L188.0736 186.5439
" />
<path d="M189.2879 186.2582
L189.2165 186.3297
" />
<path d="M189.2165 186.3297
L189.0022 186.4011
" />
<path d="M189.0022 186.4011
L188.8594 186.4011
" />
<path d="M188.8594 186.4011
L188.6451 186.3297
" />
<path d="M188.6451 186.3297
L188.5022 186.1868
" />
<path d="M188.5022 186.1868
L188.4308 186.0439
" />
<path d="M188.4308 186.0439
L188.3594 185.7582
" />
<path d="M188.3594 185.7582
L188.3594 185.5439
" />
<path d="M188.3594 185.5439
L188.4308 185.2582
" />
<path d="M188.4308 185.2582
L188.5022 185.1154
" />
<path d="M188.5022 185.1154
L188.6451 184.9725
" />
<path d="M188.6451 184.9725
L188.8594 184.9011
" />
<path d="M188.8594 184.9011
L189.0022 184.9011
" />
<path d="M189.0022 184.9011
L189.2165 184.9725
" />
<path d="M189.2165 184.9725
L189.2879 185.0439
" />
<path d="M189.9308 186.4011
L189.9308 184.9011
" />
<path d="M189.9308 184.9011
L190.5022 184.9011
" />
<path d="M190.5022 184.9011
L190.6451 184.9725
" />
<path d="M190.6451 184.9725
L190.7165 185.0439
" />
<path d="M190.7165 185.0439
L190.7879 185.1868
" />
<path d="M190.7879 185.1868
L190.7879 185.4011
" />
<path d="M190.7879 185.4011
L190.7165 185.5439
" />
<path d="M190.7165 185.5439
L190.6451 185.6154
" />
<path d="M190.6451 185.6154
L190.5022 185.6868
" />
<path d="M190.5022 185.6868
L189.9308 185.6868
" />
<path d="M192.2879 186.4011
L191.7879 185.6868
" />
<path d="M191.4308 186.4011
L191.4308 184.9011
" />
<path d="M191.4308 184.9011
L192.0022 184.9011
" />
<path d="M192.0022 184.9011
L192.1451 184.9725
" />
<path d="M192.1451 184.9725
L192.2165 185.0439
" />
<path d="M192.2165 185.0439
L192.2879 185.1868
" />
<path d="M192.2879 185.1868
L192.2879 185.4011
" />
<path d="M192.2879 185.4011
L192.2165 185.5439
" />
<path d="M192.2165 185.5439
L192.1451 185.6154
" />
<path d="M192.1451 185.6154
L192.0022 185.6868
" />
<path d="M192.0022 185.6868
L191.4308 185.6868
" />
<path d="M193.5737 186.3297
L193.4308 186.4011
" />
<path d="M193.4308 186.4011
L193.1451 186.4011
" />
<path d="M193.1451 186.4011
L193.0022 186.3297
" />
<path d="M193.0022 186.3297
L192.9308 186.2582
" />
<path d="M192.9308 186.2582
L192.8594 186.1154
" />
<path d="M192.8594 186.1154
L192.8594 185.6868
" />
<path d="M192.8594 185.6868
L192.9308 185.5439
" />
<path d="M192.9308 185.5439
L193.0022 185.4725
" />
<path d="M193.0022 185.4725
L193.1451 185.4011
" />
<path d="M193.1451 185.4011
L193.4308 185.4011
" />
<path d="M193.4308 185.4011
L193.5737 185.4725
" />
<path d="M194.2165 186.4011
L194.2165 184.9011
" />
<path d="M194.8594 186.4011
L194.8594 185.6154
" />
<path d="M194.8594 185.6154
L194.7879 185.4725
" />
<path d="M194.7879 185.4725
L194.6451 185.4011
" />
<path d="M194.6451 185.4011
L194.4308 185.4011
" />
<path d="M194.4308 185.4011
L194.2879 185.4725
" />
<path d="M194.2879 185.4725
L194.2165 185.5439
" />
<path d="M196.1450 186.3297
L196.0022 186.4011
" />
<path d="M196.0022 186.4011
L195.7165 186.4011
" />
<path d="M195.7165 186.4011
L195.5736 186.3297
" />
<path d="M195.5736 186.3297
L195.5022 186.1868
" />
<path d="M195.5022 186.1868
L195.5022 185.6154
" />
<path d="M195.5022 185.6154
L195.5736 185.4725
" />
<path d="M195.5736 185.4725
L195.7165 185.4011
" />
<path d="M195.7165 185.4011
L196.0022 185.4011
" />
<path d="M196.0022 185.4011
L196.1450 185.4725
" />
<path d="M196.1450 185.4725
L196.2165 185.6154
" />
<path d="M196.2165 185.6154
L196.2165 185.7582
" />
<path d="M196.2165 185.7582
L195.5022 185.9011
" />
<path d="M197.5022 186.3297
L197.3593 186.4011
" />
<path d="M197.3593 186.4011
L197.0736 186.4011
" />
<path d="M197.0736 186.4011
L196.9307 186.3297
" />
<path d="M196.9307 186.3297
L196.8593 186.2582
" />
<path d="M196.8593 186.2582
L196.7879 186.1154
" />
<path d="M196.7879 186.1154
L196.7879 185.6868
" />
<path d="M196.7879 185.6868
L196.8593 185.5439
" />
<path d="M196.8593 185.5439
L196.9307 185.4725
" />
<path d="M196.9307 185.4725
L197.0736 185.4011
" />
<path d="M197.0736 185.4011
L197.3593 185.4011
" />
<path d="M197.3593 185.4011
L197.5022 185.4725
" />
<path d="M198.1450 186.4011
L198.1450 184.9011
" />
<path d="M198.2879 185.8297
L198.7164 186.4011
" />
<path d="M198.7164 185.4011
L198.1450 185.9725
" />
<path d="M199.3593 186.2582
L199.4307 186.3297
" />
<path d="M199.4307 186.3297
L199.3593 186.4011
" />
<path d="M199.3593 186.4011
L199.2879 186.3297
" />
<path d="M199.2879 186.3297
L199.3593 186.2582
" />
<path d="M199.3593 186.2582
L199.3593 186.4011
" />
<path d="M200.0736 186.4011
L200.0736 184.9011
" />
<path d="M200.2165 185.8297
L200.6450 186.4011
" />
<path d="M200.6450 185.4011
L200.0736 185.9725
" />
<path d="M201.2879 186.4011
L201.2879 185.4011
" />
<path d="M201.2879 184.9011
L201.2165 184.9725
" />
<path d="M201.2165 184.9725
L201.2879 185.0439
" />
<path d="M201.2879 185.0439
L201.3593 184.9725
" />
<path d="M201.3593 184.9725
L201.2879 184.9011
" />
<path d="M201.2879 184.9011
L201.2879 185.0439
" />
<path d="M202.6451 186.3297
L202.5022 186.4011
" />
<path d="M202.5022 186.4011
L202.2165 186.4011
" />
<path d="M202.2165 186.4011
L202.0736 186.3297
" />
<path d="M202.0736 186.3297
L202.0022 186.2582
" />
<path d="M202.0022 186.2582
L201.9308 186.1154
" />
<path d="M201.9308 186.1154
L201.9308 185.6868
" />
<path d="M201.9308 185.6868
L202.0022 185.5439
" />
<path d="M202.0022 185.5439
L202.0736 185.4725
" />
<path d="M202.0736 185.4725
L202.2165 185.4011
" />
<path d="M202.2165 185.4011
L202.5022 185.4011
" />
<path d="M202.5022 185.4011
L202.6451 185.4725
" />
<path d="M203.9308 186.4011
L203.9308 185.6154
" />
<path d="M203.9308 185.6154
L203.8593 185.4725
" />
<path d="M203.8593 185.4725
L203.7165 185.4011
" />
<path d="M203.7165 185.4011
L203.4308 185.4011
" />
<path d="M203.4308 185.4011
L203.2879 185.4725
" />
<path d="M203.9308 186.3297
L203.7879 186.4011
" />
<path d="M203.7879 186.4011
L203.4308 186.4011
" />
<path d="M203.4308 186.4011
L203.2879 186.3297
" />
<path d="M203.2879 186.3297
L203.2165 186.1868
" />
<path d="M203.2165 186.1868
L203.2165 186.0439
" />
<path d="M203.2165 186.0439
L203.2879 185.9011
" />
<path d="M203.2879 185.9011
L203.4308 185.8297
" />
<path d="M203.4308 185.8297
L203.7879 185.8297
" />
<path d="M203.7879 185.8297
L203.9308 185.7582
" />
<path d="M205.2879 186.4011
L205.2879 184.9011
" />
<path d="M205.2879 186.3297
L205.1450 186.4011
" />
<path d="M205.1450 186.4011
L204.8593 186.4011
" />
<path d="M204.8593 186.4011
L204.7164 186.3297
" />
<path d="M204.7164 186.3297
L204.6450 186.2582
" />
<path d="M204.6450 186.2582
L204.5736 186.1154
" />
<path d="M204.5736 186.1154
L204.5736 185.6868
" />
<path d="M204.5736 185.6868
L204.6450 185.5439
" />
<path d="M204.6450 185.5439
L204.7164 185.4725
" />
<path d="M204.7164 185.4725
L204.8593 185.4011
" />
<path d="M204.8593 185.4011
L205.1450 185.4011
" />
<path d="M205.1450 185.4011
L205.2879 185.4725
" />
<path d="M205.6450 186.5439
L206.7878 186.5439
" />
<path d="M207.0736 186.3297
L207.2164 186.4011
" />
<path d="M207.2164 186.4011
L207.5021 186.4011
" />
<path d="M207.5021 186.4011
L207.6450 186.3297
" />
<path d="M207.6450 186.3297
L207.7164 186.1868
" />
<path d="M207.7164 186.1868
L207.7164 186.1154
" />
<path d="M207.7164 186.1154
L207.6450 185.9725
" />
<path d="M207.6450 185.9725
L207.5021 185.9011
" />
<path d="M207.5021 185.9011
L207.2879 185.9011
" />
<path d="M207.2879 185.9011
L207.1450 185.8297
" />
<path d="M207.1450 185.8297
L207.0736 185.6868
" />
<path d="M207.0736 185.6868
L207.0736 185.6154
" />
<path d="M207.0736 185.6154
L207.1450 185.4725
" />
<path d="M207.1450 185.4725
L207.2879 185.4011
" />
<path d="M207.2879 185.4011
L207.5021 185.4011
" />
<path d="M207.5021 185.4011
L207.6450 185.4725
" />
<path d="M209.0022 186.3297
L208.8593 186.4011
" />
<path d="M208.8593 186.4011
L208.5736 186.4011
" />
<path d="M208.5736 186.4011
L208.4307 186.3297
" />
<path d="M208.4307 186.3297
L208.3593 186.2582
" />
<path d="M208.3593 186.2582
L208.2879 186.1154
" />
<path d="M208.2879 186.1154
L208.2879 185.6868
" />
<path d="M208.2879 185.6868
L208.3593 185.5439
" />
<path d="M208.3593 185.5439
L208.4307 185.4725
" />
<path d="M208.4307 185.4725
L208.5736 185.4011
" />
<path d="M208.5736 185.4011
L208.8593 185.4011
" />
<path d="M208.8593 185.4011
L209.0022 185.4725
" />
<path d="M209.6450 186.4011
L209.6450 184.9011
" />
<path d="M210.2879 186.4011
L210.2879 185.6154
" />
<path d="M210.2879 185.6154
L210.2164 185.4725
" />
<path d="M210.2164 185.4725
L210.0736 185.4011
" />
<path d="M210.0736 185.4011
L209.8593 185.4011
" />
<path d="M209.8593 185.4011
L209.7164 185.4725
" />
<path d="M209.7164 185.4725
L209.6450 185.5439
" />
</g><path d="M177.0022 181.5072
L285.0022 181.5072
" />
<text x="178.0022" y="183.7572"
textLength="9.7238" font-size="2.0000" lengthAdjust="spacingAndGlyphs"
text-anchor="start" opacity="0">Sheet: /</text>
<g class="stroked-text"><desc>Sheet: /</desc>
<path d="M178.2879 183.6297
L178.5022 183.7011
" />
<path d="M178.5022 183.7011
L178.8593 183.7011
" />
<path d="M178.8593 183.7011
L179.0022 183.6297
" />
<path d="M179.0022 183.6297
L179.0736 183.5582
" />
<path d="M179.0736 183.5582
L179.1450 183.4154
" />
<path d="M179.1450 183.4154
L179.1450 183.2725
" />
<path d="M179.1450 183.2725
L179.0736 183.1297
" />
<path d="M179.0736 183.1297
L179.0022 183.0582
" />
<path d="M179.0022 183.0582
L178.8593 182.9868
" />
<path d="M178.8593 182.9868
L178.5736 182.9154
" />
<path d="M178.5736 182.9154
L178.4307 182.8439
" />
<path d="M178.4307 182.8439
L178.3593 182.7725
" />
<path d="M178.3593 182.7725
L178.2879 182.6297
" />
<path d="M178.2879 182.6297
L178.2879 182.4868
" />
<path d="M178.2879 182.4868
L178.3593 182.3439
" />
<path d="M178.3593 182.3439
L178.4307 182.2725
" />
<path d="M178.4307 182.2725
L178.5736 182.2011
" />
<path d="M178.5736 182.2011
L178.9307 182.2011
" />
<path d="M178.9307 182.2011
L179.1450 182.2725
" />
<path d="M179.7879 183.7011
L179.7879 182.2011
" />
<path d="M180.4308 183.7011
L180.4308 182.9154
" />
<path d="M180.4308 182.9154
L180.3593 182.7725
" />
<path d="M180.3593 182.7725
L180.2165 182.7011
" />
<path d="M180.2165 182.7011
L180.0022 182.7011
" />
<path d="M180.0022 182.7011
L179.8593 182.7725
" />
<path d="M179.8593 182.7725
L179.7879 182.8439
" />
<path d="M181.7164 183.6297
L181.5736 183.7011
" />
<path d="M181.5736 183.7011
L181.2879 183.7011
" />
<path d="M181.2879 183.7011
L181.1450 183.6297
" />
<path d="M181.1450 183.6297
L181.0736 183.4868
" />
<path d="M181.0736 183.4868
L181.0736 182.9154
" />
<path d="M181.0736 182.9154
L181.1450 182.7725
" />
<path d="M181.1450 182.7725
L181.2879 182.7011
" />
<path d="M181.2879 182.7011
L181.5736 182.7011
" />
<path d="M181.5736 182.7011
L181.7164 182.7725
" />
<path d="M181.7164 182.7725
L181.7879 182.9154
" />
<path d="M181.7879 182.9154
L181.7879 183.0582
" />
<path d="M181.7879 183.0582
L181.0736 183.2011
" />
<path d="M183.0021 183.6297
L182.8593 183.7011
" />
<path d="M182.8593 183.7011
L182.5736 183.7011
" />
<path d="M182.5736 183.7011
L182.4307 183.6297
" />
<path d="M182.4307 183.6297
L182.3593 183.4868
" />
<path d="M182.3593 183.4868
L182.3593 182.9154
" />
<path d="M182.3593 182.9154
L182.4307 182.7725
" />
<path d="M182.4307 182.7725
L182.5736 182.7011
" />
<path d="M182.5736 182.7011
L182.8593 182.7011
" />
<path d="M182.8593 182.7011
L183.0021 182.7725
" />
<path d="M183.0021 182.7725
L183.0736 182.9154
" />
<path d="M183.0736 182.9154
L183.0736 183.0582
" />
<path d="M183.0736 183.0582
L182.3593 183.2011
" />
<path d="M183.5021 182.7011
L184.0735 182.7011
" />
<path d="M183.7164 182.2011
L183.7164 183.4868
" />
<path d="M183.7164 183.4868
L183.7878 183.6297
" />
<path d="M183.7878 183.6297
L183.9307 183.7011
" />
<path d="M183.9307 183.7011
L184.0735 183.7011
" />
<path d="M184.5735 183.5582
L184.6449 183.6297
" />
<path d="M184.6449 183.6297
L184.5735 183.7011
" />
<path d="M184.5735 183.7011
L184.5021 183.6297
" />
<path d="M184.5021 183.6297
L184.5735 183.5582
" />
<path d="M184.5735 183.5582
L184.5735 183.7011
" />
<path d="M184.5735 182.7725
L184.6449 182.8439
" />
<path d="M184.6449 182.8439
L184.5735 182.9154
" />
<path d="M184.5735 182.9154
L184.5021 182.8439
" />
<path d="M184.5021 182.8439
L184.5735 182.7725
" />
<path d="M184.5735 182.7725
L184.5735 182.9154
" />
<path d="M187.5021 182.1297
L186.2164 184.0582
" />
</g></g>
<g style="fill:#840000; fill-opacity:0.0; 
stroke:#840000; stroke-width:0.3000; stroke-opacity:1; 
stroke-linecap:round; stroke-linejoin:round;">
<text x="178.0022" y="180.7572"
textLength="0.7500" font-size="2.0000" lengthAdjust="spacingAndGlyphs"
text-anchor="start" opacity="0"></text>
<g class="stroked-text"><desc></desc>
</g></g>
<g style="fill:#840000; fill-opacity:0.0; 
stroke:#840000; stroke-width:0.1524; stroke-opacity:1; 
stroke-linecap:round; stroke-linejoin:round;">
<text x="178.0022" y="177.7572"
textLength="0.3810" font-size="2.0000" lengthAdjust="spacingAndGlyphs"
text-anchor="start" opacity="0"></text>
<g class="stroked-text"><desc></desc>
</g><text x="178.0022" y="174.7572"
textLength="0.3810" font-size="2.0000" lengthAdjust="spacingAndGlyphs"
text-anchor="start" opacity="0"></text>
<g class="stroked-text"><desc></desc>
</g><text x="178.0022" y="171.7572"
textLength="0.3810" font-size="2.0000" lengthAdjust="spacingAndGlyphs"
text-anchor="start" opacity="0"></text>
<g class="stroked-text"><desc></desc>
</g><text x="178.0022" y="168.7572"
textLength="0.3810" font-size="2.0000" lengthAdjust="spacingAndGlyphs"
text-anchor="start" opacity="0"></text>
<g class="stroked-text"><desc></desc>
</g><path d="M197.0022 191.5072
L197.0022 194.5072
" />
<path d="M261.0022 191.5072
L261.0022 198.0072
" />
</g>
<g style="fill:#FFFFFF; fill-opacity:0.0; 
stroke:#FFFFFF; stroke-width:0.1524; stroke-opacity:1; 
stroke-linecap:round; stroke-linejoin:round;">
</g>
<g style="fill:#FFFFFF; fill-opacity:0.0000; 
stroke:#FFFFFF; stroke-width:0.0001; stroke-opacity:1; 
stroke-linecap:round; stroke-linejoin:round;">
<rect x="26.670000" y="39.370000" width="114.300000" height="101.600000" rx="0.000000" />
</g>
<g style="fill:#FFFFFF; fill-opacity:0.0000; 
stroke:#FFFFFF; stroke-width:0.1524; stroke-opacity:1; 
stroke-linecap:round; stroke-linejoin:round;">
</g>
<g style="fill:#FFFFFF; fill-opacity:0.0000; 
stroke:#FFFFFF; stroke-width:0.0001; stroke-opacity:1; 
stroke-linecap:round; stroke-linejoin:round;">
<rect x="154.940000" y="39.370000" width="116.840000" height="101.600000" rx="0.000000" />
</g>
<g style="fill:#FFFFFF; fill-opacity:0.0000; 
stroke:#FFFFFF; stroke-width:0.1524; stroke-opacity:1; 
stroke-linecap:round; stroke-linejoin:round;">
</g>
<g style="fill:#840000; fill-opacity:1.0000; 
stroke:#840000; stroke-width:0.1524; stroke-opacity:1; 
stroke-linecap:round; stroke-linejoin:round;">
</g>
<g style="fill:#840000; fill-opacity:0.0; 
stroke:#840000; stroke-width:0.1524; stroke-opacity:1; 
stroke-linecap:round; stroke-linejoin:round;">
<rect x="26.670000" y="39.370000" width="114.300000" height="101.600000" rx="0.000000" />
</g>
<g style="fill:#006464; fill-opacity:0.0; 
stroke:#006464; stroke-width:0.1524; stroke-opacity:1; 
stroke-linecap:round; stroke-linejoin:round;">
<text x="26.6700" y="38.6584"
textLength="12.2220" font-size="1.6933" lengthAdjust="spacingAndGlyphs"
text-anchor="start" opacity="0">Tastaturprint</text>
<g class="stroked-text"><desc>Tastaturprint</desc>
<path d="M26.7909 37.2329
L27.5166 37.2329
" />
<path d="M27.1538 38.5029
L27.1538 37.2329
" />
<path d="M28.4842 38.5029
L28.4842 37.8377
" />
<path d="M28.4842 37.8377
L28.4237 37.7167
" />
<path d="M28.4237 37.7167
L28.3028 37.6563
" />
<path d="M28.3028 37.6563
L28.0609 37.6563
" />
<path d="M28.0609 37.6563
L27.9399 37.7167
" />
<path d="M28.4842 38.4425
L28.3633 38.5029
" />
<path d="M28.3633 38.5029
L28.0609 38.5029
" />
<path d="M28.0609 38.5029
L27.9399 38.4425
" />
<path d="M27.9399 38.4425
L27.8795 38.3215
" />
<path d="M27.8795 38.3215
L27.8795 38.2005
" />
<path d="M27.8795 38.2005
L27.9399 38.0796
" />
<path d="M27.9399 38.0796
L28.0609 38.0191
" />
<path d="M28.0609 38.0191
L28.3633 38.0191
" />
<path d="M28.3633 38.0191
L28.4842 37.9586
" />
<path d="M29.0285 38.4425
L29.1494 38.5029
" />
<path d="M29.1494 38.5029
L29.3913 38.5029
" />
<path d="M29.3913 38.5029
L29.5123 38.4425
" />
<path d="M29.5123 38.4425
L29.5727 38.3215
" />
<path d="M29.5727 38.3215
L29.5727 38.2610
" />
<path d="M29.5727 38.2610
L29.5123 38.1401
" />
<path d="M29.5123 38.1401
L29.3913 38.0796
" />
<path d="M29.3913 38.0796
L29.2099 38.0796
" />
<path d="M29.2099 38.0796
L29.0889 38.0191
" />
<path d="M29.0889 38.0191
L29.0285 37.8982
" />
<path d="M29.0285 37.8982
L29.0285 37.8377
" />
<path d="M29.0285 37.8377
L29.0889 37.7167
" />
<path d="M29.0889 37.7167
L29.2099 37.6563
" />
<path d="M29.2099 37.6563
L29.3913 37.6563
" />
<path d="M29.3913 37.6563
L29.5123 37.7167
" />
<path d="M29.9356 37.6563
L30.4194 37.6563
" />
<path d="M30.1170 37.2329
L30.1170 38.3215
" />
<path d="M30.1170 38.3215
L30.1775 38.4425
" />
<path d="M30.1775 38.4425
L30.2985 38.5029
" />
<path d="M30.2985 38.5029
L30.4194 38.5029
" />
<path d="M31.3870 38.5029
L31.3870 37.8377
" />
<path d="M31.3870 37.8377
L31.3265 37.7167
" />
<path d="M31.3265 37.7167
L31.2056 37.6563
" />
<path d="M31.2056 37.6563
L30.9637 37.6563
" />
<path d="M30.9637 37.6563
L30.8427 37.7167
" />
<path d="M31.3870 38.4425
L31.2661 38.5029
" />
<path d="M31.2661 38.5029
L30.9637 38.5029
" />
<path d="M30.9637 38.5029
L30.8427 38.4425
" />
<path d="M30.8427 38.4425
L30.7823 38.3215
" />
<path d="M30.7823 38.3215
L30.7823 38.2005
" />
<path d="M30.7823 38.2005
L30.8427 38.0796
" />
<path d="M30.8427 38.0796
L30.9637 38.0191
" />
<path d="M30.9637 38.0191
L31.2661 38.0191
" />
<path d="M31.2661 38.0191
L31.3870 37.9586
" />
<path d="M31.8103 37.6563
L32.2941 37.6563
" />
<path d="M31.9917 37.2329
L31.9917 38.3215
" />
<path d="M31.9917 38.3215
L32.0522 38.4425
" />
<path d="M32.0522 38.4425
L32.1732 38.5029
" />
<path d="M32.1732 38.5029
L32.2941 38.5029
" />
<path d="M33.2617 37.6563
L33.2617 38.5029
" />
<path d="M32.7174 37.6563
L32.7174 38.3215
" />
<path d="M32.7174 38.3215
L32.7779 38.4425
" />
<path d="M32.7779 38.4425
L32.8989 38.5029
" />
<path d="M32.8989 38.5029
L33.0803 38.5029
" />
<path d="M33.0803 38.5029
L33.2012 38.4425
" />
<path d="M33.2012 38.4425
L33.2617 38.3820
" />
<path d="M33.8664 38.5029
L33.8664 37.6563
" />
<path d="M33.8664 37.8982
L33.9269 37.7772
" />
<path d="M33.9269 37.7772
L33.9874 37.7167
" />
<path d="M33.9874 37.7167
L34.1083 37.6563
" />
<path d="M34.1083 37.6563
L34.2293 37.6563
" />
<path d="M34.6526 37.6563
L34.6526 38.9263
" />
<path d="M34.6526 37.7167
L34.7736 37.6563
" />
<path d="M34.7736 37.6563
L35.0155 37.6563
" />
<path d="M35.0155 37.6563
L35.1364 37.7167
" />
<path d="M35.1364 37.7167
L35.1969 37.7772
" />
<path d="M35.1969 37.7772
L35.2574 37.8982
" />
<path d="M35.2574 37.8982
L35.2574 38.2610
" />
<path d="M35.2574 38.2610
L35.1969 38.3820
" />
<path d="M35.1969 38.3820
L35.1364 38.4425
" />
<path d="M35.1364 38.4425
L35.0155 38.5029
" />
<path d="M35.0155 38.5029
L34.7736 38.5029
" />
<path d="M34.7736 38.5029
L34.6526 38.4425
" />
<path d="M35.8016 38.5029
L35.8016 37.6563
" />
<path d="M35.8016 37.8982
L35.8621 37.7772
" />
<path d="M35.8621 37.7772
L35.9226 37.7167
" />
<path d="M35.9226 37.7167
L36.0435 37.6563
" />
<path d="M36.0435 37.6563
L36.1645 37.6563
" />
<path d="M36.5878 38.5029
L36.5878 37.6563
" />
<path d="M36.5878 37.2329
L36.5274 37.2934
" />
<path d="M36.5274 37.2934
L36.5878 37.3539
" />
<path d="M36.5878 37.3539
L36.6483 37.2934
" />
<path d="M36.6483 37.2934
L36.5878 37.2329
" />
<path d="M36.5878 37.2329
L36.5878 37.3539
" />
<path d="M37.1926 37.6563
L37.1926 38.5029
" />
<path d="M37.1926 37.7772
L37.2531 37.7167
" />
<path d="M37.2531 37.7167
L37.3741 37.6563
" />
<path d="M37.3741 37.6563
L37.5555 37.6563
" />
<path d="M37.5555 37.6563
L37.6764 37.7167
" />
<path d="M37.6764 37.7167
L37.7369 37.8377
" />
<path d="M37.7369 37.8377
L37.7369 38.5029
" />
<path d="M38.1602 37.6563
L38.6440 37.6563
" />
<path d="M38.3416 37.2329
L38.3416 38.3215
" />
<path d="M38.3416 38.3215
L38.4021 38.4425
" />
<path d="M38.4021 38.4425
L38.5231 38.5029
" />
<path d="M38.5231 38.5029
L38.6440 38.5029
" />
</g></g>
<g style="fill:#725600; fill-opacity:0.0; 
stroke:#725600; stroke-width:0.1524; stroke-opacity:1; 
stroke-linecap:round; stroke-linejoin:round;">
<text x="26.6700" y="142.8246"
textLength="27.0992" font-size="1.6933" lengthAdjust="spacingAndGlyphs"
text-anchor="start" opacity="0">File: Tastaturprint.kicad_sch</text>
<g class="stroked-text"><desc>File: Tastaturprint.kicad_sch</desc>
<path d="M27.3957 142.2198
L26.9723 142.2198
" />
<path d="M26.9723 142.8850
L26.9723 141.6150
" />
<path d="M26.9723 141.6150
L27.5771 141.6150
" />
<path d="M28.0609 142.8850
L28.0609 142.0384
" />
<path d="M28.0609 141.6150
L28.0005 141.6755
" />
<path d="M28.0005 141.6755
L28.0609 141.7360
" />
<path d="M28.0609 141.7360
L28.1214 141.6755
" />
<path d="M28.1214 141.6755
L28.0609 141.6150
" />
<path d="M28.0609 141.6150
L28.0609 141.7360
" />
<path d="M28.8472 142.8850
L28.7262 142.8246
" />
<path d="M28.7262 142.8246
L28.6657 142.7036
" />
<path d="M28.6657 142.7036
L28.6657 141.6150
" />
<path d="M29.8147 142.8246
L29.6938 142.8850
" />
<path d="M29.6938 142.8850
L29.4519 142.8850
" />
<path d="M29.4519 142.8850
L29.3309 142.8246
" />
<path d="M29.3309 142.8246
L29.2705 142.7036
" />
<path d="M29.2705 142.7036
L29.2705 142.2198
" />
<path d="M29.2705 142.2198
L29.3309 142.0988
" />
<path d="M29.3309 142.0988
L29.4519 142.0384
" />
<path d="M29.4519 142.0384
L29.6938 142.0384
" />
<path d="M29.6938 142.0384
L29.8147 142.0988
" />
<path d="M29.8147 142.0988
L29.8752 142.2198
" />
<path d="M29.8752 142.2198
L29.8752 142.3407
" />
<path d="M29.8752 142.3407
L29.2705 142.4617
" />
<path d="M30.4195 142.7641
L30.4800 142.8246
" />
<path d="M30.4800 142.8246
L30.4195 142.8850
" />
<path d="M30.4195 142.8850
L30.3591 142.8246
" />
<path d="M30.3591 142.8246
L30.4195 142.7641
" />
<path d="M30.4195 142.7641
L30.4195 142.8850
" />
<path d="M30.4195 142.0988
L30.4800 142.1593
" />
<path d="M30.4800 142.1593
L30.4195 142.2198
" />
<path d="M30.4195 142.2198
L30.3591 142.1593
" />
<path d="M30.3591 142.1593
L30.4195 142.0988
" />
<path d="M30.4195 142.0988
L30.4195 142.2198
" />
<path d="M31.8105 141.6150
L32.5362 141.6150
" />
<path d="M32.1734 142.8850
L32.1734 141.6150
" />
<path d="M33.5038 142.8850
L33.5038 142.2198
" />
<path d="M33.5038 142.2198
L33.4433 142.0988
" />
<path d="M33.4433 142.0988
L33.3224 142.0384
" />
<path d="M33.3224 142.0384
L33.0805 142.0384
" />
<path d="M33.0805 142.0384
L32.9595 142.0988
" />
<path d="M33.5038 142.8246
L33.3829 142.8850
" />
<path d="M33.3829 142.8850
L33.0805 142.8850
" />
<path d="M33.0805 142.8850
L32.9595 142.8246
" />
<path d="M32.9595 142.8246
L32.8991 142.7036
" />
<path d="M32.8991 142.7036
L32.8991 142.5826
" />
<path d="M32.8991 142.5826
L32.9595 142.4617
" />
<path d="M32.9595 142.4617
L33.0805 142.4012
" />
<path d="M33.0805 142.4012
L33.3829 142.4012
" />
<path d="M33.3829 142.4012
L33.5038 142.3407
" />
<path d="M34.0481 142.8246
L34.1690 142.8850
" />
<path d="M34.1690 142.8850
L34.4109 142.8850
" />
<path d="M34.4109 142.8850
L34.5319 142.8246
" />
<path d="M34.5319 142.8246
L34.5923 142.7036
" />
<path d="M34.5923 142.7036
L34.5923 142.6431
" />
<path d="M34.5923 142.6431
L34.5319 142.5222
" />
<path d="M34.5319 142.5222
L34.4109 142.4617
" />
<path d="M34.4109 142.4617
L34.2295 142.4617
" />
<path d="M34.2295 142.4617
L34.1085 142.4012
" />
<path d="M34.1085 142.4012
L34.0481 142.2803
" />
<path d="M34.0481 142.2803
L34.0481 142.2198
" />
<path d="M34.0481 142.2198
L34.1085 142.0988
" />
<path d="M34.1085 142.0988
L34.2295 142.0384
" />
<path d="M34.2295 142.0384
L34.4109 142.0384
" />
<path d="M34.4109 142.0384
L34.5319 142.0988
" />
<path d="M34.9552 142.0384
L35.4390 142.0384
" />
<path d="M35.1366 141.6150
L35.1366 142.7036
" />
<path d="M35.1366 142.7036
L35.1971 142.8246
" />
<path d="M35.1971 142.8246
L35.3181 142.8850
" />
<path d="M35.3181 142.8850
L35.4390 142.8850
" />
<path d="M36.4066 142.8850
L36.4066 142.2198
" />
<path d="M36.4066 142.2198
L36.3461 142.0988
" />
<path d="M36.3461 142.0988
L36.2252 142.0384
" />
<path d="M36.2252 142.0384
L35.9833 142.0384
" />
<path d="M35.9833 142.0384
L35.8623 142.0988
" />
<path d="M36.4066 142.8246
L36.2857 142.8850
" />
<path d="M36.2857 142.8850
L35.9833 142.8850
" />
<path d="M35.9833 142.8850
L35.8623 142.8246
" />
<path d="M35.8623 142.8246
L35.8019 142.7036
" />
<path d="M35.8019 142.7036
L35.8019 142.5826
" />
<path d="M35.8019 142.5826
L35.8623 142.4617
" />
<path d="M35.8623 142.4617
L35.9833 142.4012
" />
<path d="M35.9833 142.4012
L36.2857 142.4012
" />
<path d="M36.2857 142.4012
L36.4066 142.3407
" />
<path d="M36.8299 142.0384
L37.3137 142.0384
" />
<path d="M37.0113 141.6150
L37.0113 142.7036
" />
<path d="M37.0113 142.7036
L37.0718 142.8246
" />
<path d="M37.0718 142.8246
L37.1928 142.8850
" />
<path d="M37.1928 142.8850
L37.3137 142.8850
" />
<path d="M38.2813 142.0384
L38.2813 142.8850
" />
<path d="M37.7370 142.0384
L37.7370 142.7036
" />
<path d="M37.7370 142.7036
L37.7975 142.8246
" />
<path d="M37.7975 142.8246
L37.9185 142.8850
" />
<path d="M37.9185 142.8850
L38.0999 142.8850
" />
<path d="M38.0999 142.8850
L38.2208 142.8246
" />
<path d="M38.2208 142.8246
L38.2813 142.7641
" />
<path d="M38.8860 142.8850
L38.8860 142.0384
" />
<path d="M38.8860 142.2803
L38.9465 142.1593
" />
<path d="M38.9465 142.1593
L39.0070 142.0988
" />
<path d="M39.0070 142.0988
L39.1279 142.0384
" />
<path d="M39.1279 142.0384
L39.2489 142.0384
" />
<path d="M39.6722 142.0384
L39.6722 143.3084
" />
<path d="M39.6722 142.0988
L39.7932 142.0384
" />
<path d="M39.7932 142.0384
L40.0351 142.0384
" />
<path d="M40.0351 142.0384
L40.1560 142.0988
" />
<path d="M40.1560 142.0988
L40.2165 142.1593
" />
<path d="M40.2165 142.1593
L40.2770 142.2803
" />
<path d="M40.2770 142.2803
L40.2770 142.6431
" />
<path d="M40.2770 142.6431
L40.2165 142.7641
" />
<path d="M40.2165 142.7641
L40.1560 142.8246
" />
<path d="M40.1560 142.8246
L40.0351 142.8850
" />
<path d="M40.0351 142.8850
L39.7932 142.8850
" />
<path d="M39.7932 142.8850
L39.6722 142.8246
" />
<path d="M40.8212 142.8850
L40.8212 142.0384
" />
<path d="M40.8212 142.2803
L40.8817 142.1593
" />
<path d="M40.8817 142.1593
L40.9422 142.0988
" />
<path d="M40.9422 142.0988
L41.0631 142.0384
" />
<path d="M41.0631 142.0384
L41.1841 142.0384
" />
<path d="M41.6074 142.8850
L41.6074 142.0384
" />
<path d="M41.6074 141.6150
L41.5470 141.6755
" />
<path d="M41.5470 141.6755
L41.6074 141.7360
" />
<path d="M41.6074 141.7360
L41.6679 141.6755
" />
<path d="M41.6679 141.6755
L41.6074 141.6150
" />
<path d="M41.6074 141.6150
L41.6074 141.7360
" />
<path d="M42.2122 142.0384
L42.2122 142.8850
" />
<path d="M42.2122 142.1593
L42.2727 142.0988
" />
<path d="M42.2727 142.0988
L42.3937 142.0384
" />
<path d="M42.3937 142.0384
L42.5751 142.0384
" />
<path d="M42.5751 142.0384
L42.6960 142.0988
" />
<path d="M42.6960 142.0988
L42.7565 142.2198
" />
<path d="M42.7565 142.2198
L42.7565 142.8850
" />
<path d="M43.1798 142.0384
L43.6636 142.0384
" />
<path d="M43.3612 141.6150
L43.3612 142.7036
" />
<path d="M43.3612 142.7036
L43.4217 142.8246
" />
<path d="M43.4217 142.8246
L43.5427 142.8850
" />
<path d="M43.5427 142.8850
L43.6636 142.8850
" />
<path d="M44.0869 142.7641
L44.1474 142.8246
" />
<path d="M44.1474 142.8246
L44.0869 142.8850
" />
<path d="M44.0869 142.8850
L44.0265 142.8246
" />
<path d="M44.0265 142.8246
L44.0869 142.7641
" />
<path d="M44.0869 142.7641
L44.0869 142.8850
" />
<path d="M44.6917 142.8850
L44.6917 141.6150
" />
<path d="M44.8127 142.4012
L45.1755 142.8850
" />
<path d="M45.1755 142.0384
L44.6917 142.5222
" />
<path d="M45.7198 142.8850
L45.7198 142.0384
" />
<path d="M45.7198 141.6150
L45.6594 141.6755
" />
<path d="M45.6594 141.6755
L45.7198 141.7360
" />
<path d="M45.7198 141.7360
L45.7803 141.6755
" />
<path d="M45.7803 141.6755
L45.7198 141.6150
" />
<path d="M45.7198 141.6150
L45.7198 141.7360
" />
<path d="M46.8689 142.8246
L46.7480 142.8850
" />
<path d="M46.7480 142.8850
L46.5061 142.8850
" />
<path d="M46.5061 142.8850
L46.3851 142.8246
" />
<path d="M46.3851 142.8246
L46.3246 142.7641
" />
<path d="M46.3246 142.7641
L46.2642 142.6431
" />
<path d="M46.2642 142.6431
L46.2642 142.2803
" />
<path d="M46.2642 142.2803
L46.3246 142.1593
" />
<path d="M46.3246 142.1593
L46.3851 142.0988
" />
<path d="M46.3851 142.0988
L46.5061 142.0384
" />
<path d="M46.5061 142.0384
L46.7480 142.0384
" />
<path d="M46.7480 142.0384
L46.8689 142.0988
" />
<path d="M47.9575 142.8850
L47.9575 142.2198
" />
<path d="M47.9575 142.2198
L47.8970 142.0988
" />
<path d="M47.8970 142.0988
L47.7761 142.0384
" />
<path d="M47.7761 142.0384
L47.5342 142.0384
" />
<path d="M47.5342 142.0384
L47.4132 142.0988
" />
<path d="M47.9575 142.8246
L47.8366 142.8850
" />
<path d="M47.8366 142.8850
L47.5342 142.8850
" />
<path d="M47.5342 142.8850
L47.4132 142.8246
" />
<path d="M47.4132 142.8246
L47.3528 142.7036
" />
<path d="M47.3528 142.7036
L47.3528 142.5826
" />
<path d="M47.3528 142.5826
L47.4132 142.4617
" />
<path d="M47.4132 142.4617
L47.5342 142.4012
" />
<path d="M47.5342 142.4012
L47.8366 142.4012
" />
<path d="M47.8366 142.4012
L47.9575 142.3407
" />
<path d="M49.1065 142.8850
L49.1065 141.6150
" />
<path d="M49.1065 142.8246
L48.9856 142.8850
" />
<path d="M48.9856 142.8850
L48.7437 142.8850
" />
<path d="M48.7437 142.8850
L48.6227 142.8246
" />
<path d="M48.6227 142.8246
L48.5622 142.7641
" />
<path d="M48.5622 142.7641
L48.5018 142.6431
" />
<path d="M48.5018 142.6431
L48.5018 142.2803
" />
<path d="M48.5018 142.2803
L48.5622 142.1593
" />
<path d="M48.5622 142.1593
L48.6227 142.0988
" />
<path d="M48.6227 142.0988
L48.7437 142.0384
" />
<path d="M48.7437 142.0384
L48.9856 142.0384
" />
<path d="M48.9856 142.0384
L49.1065 142.0988
" />
<path d="M49.4089 143.0060
L50.3765 143.0060
" />
<path d="M50.6184 142.8246
L50.7393 142.8850
" />
<path d="M50.7393 142.8850
L50.9812 142.8850
" />
<path d="M50.9812 142.8850
L51.1022 142.8246
" />
<path d="M51.1022 142.8246
L51.1626 142.7036
" />
<path d="M51.1626 142.7036
L51.1626 142.6431
" />
<path d="M51.1626 142.6431
L51.1022 142.5222
" />
<path d="M51.1022 142.5222
L50.9812 142.4617
" />
<path d="M50.9812 142.4617
L50.7998 142.4617
" />
<path d="M50.7998 142.4617
L50.6788 142.4012
" />
<path d="M50.6788 142.4012
L50.6184 142.2803
" />
<path d="M50.6184 142.2803
L50.6184 142.2198
" />
<path d="M50.6184 142.2198
L50.6788 142.0988
" />
<path d="M50.6788 142.0988
L50.7998 142.0384
" />
<path d="M50.7998 142.0384
L50.9812 142.0384
" />
<path d="M50.9812 142.0384
L51.1022 142.0988
" />
<path d="M52.2512 142.8246
L52.1303 142.8850
" />
<path d="M52.1303 142.8850
L51.8884 142.8850
" />
<path d="M51.8884 142.8850
L51.7674 142.8246
" />
<path d="M51.7674 142.8246
L51.7069 142.7641
" />
<path d="M51.7069 142.7641
L51.6465 142.6431
" />
<path d="M51.6465 142.6431
L51.6465 142.2803
" />
<path d="M51.6465 142.2803
L51.7069 142.1593
" />
<path d="M51.7069 142.1593
L51.7674 142.0988
" />
<path d="M51.7674 142.0988
L51.8884 142.0384
" />
<path d="M51.8884 142.0384
L52.1303 142.0384
" />
<path d="M52.1303 142.0384
L52.2512 142.0988
" />
<path d="M52.7955 142.8850
L52.7955 141.6150
" />
<path d="M53.3398 142.8850
L53.3398 142.2198
" />
<path d="M53.3398 142.2198
L53.2793 142.0988
" />
<path d="M53.2793 142.0988
L53.1584 142.0384
" />
<path d="M53.1584 142.0384
L52.9770 142.0384
" />
<path d="M52.9770 142.0384
L52.8560 142.0988
" />
<path d="M52.8560 142.0988
L52.7955 142.1593
" />
</g></g>
<g style="fill:#840000; fill-opacity:0.0; 
stroke:#840000; stroke-width:0.1524; stroke-opacity:1; 
stroke-linecap:round; stroke-linejoin:round;">
<rect x="154.940000" y="39.370000" width="116.840000" height="101.600000" rx="0.000000" />
</g>
<g style="fill:#006464; fill-opacity:0.0; 
stroke:#006464; stroke-width:0.1524; stroke-opacity:1; 
stroke-linecap:round; stroke-linejoin:round;">
<text x="154.9400" y="38.6584"
textLength="9.2587" font-size="1.6933" lengthAdjust="spacingAndGlyphs"
text-anchor="start" opacity="0">Bundprint</text>
<g class="stroked-text"><desc>Bundprint</desc>
<path d="M155.6657 37.8377
L155.8471 37.8982
" />
<path d="M155.8471 37.8982
L155.9076 37.9586
" />
<path d="M155.9076 37.9586
L155.9680 38.0796
" />
<path d="M155.9680 38.0796
L155.9680 38.2610
" />
<path d="M155.9680 38.2610
L155.9076 38.3820
" />
<path d="M155.9076 38.3820
L155.8471 38.4425
" />
<path d="M155.8471 38.4425
L155.7261 38.5029
" />
<path d="M155.7261 38.5029
L155.2423 38.5029
" />
<path d="M155.2423 38.5029
L155.2423 37.2329
" />
<path d="M155.2423 37.2329
L155.6657 37.2329
" />
<path d="M155.6657 37.2329
L155.7866 37.2934
" />
<path d="M155.7866 37.2934
L155.8471 37.3539
" />
<path d="M155.8471 37.3539
L155.9076 37.4748
" />
<path d="M155.9076 37.4748
L155.9076 37.5958
" />
<path d="M155.9076 37.5958
L155.8471 37.7167
" />
<path d="M155.8471 37.7167
L155.7866 37.7772
" />
<path d="M155.7866 37.7772
L155.6657 37.8377
" />
<path d="M155.6657 37.8377
L155.2423 37.8377
" />
<path d="M157.0566 37.6563
L157.0566 38.5029
" />
<path d="M156.5123 37.6563
L156.5123 38.3215
" />
<path d="M156.5123 38.3215
L156.5728 38.4425
" />
<path d="M156.5728 38.4425
L156.6938 38.5029
" />
<path d="M156.6938 38.5029
L156.8752 38.5029
" />
<path d="M156.8752 38.5029
L156.9961 38.4425
" />
<path d="M156.9961 38.4425
L157.0566 38.3820
" />
<path d="M157.6613 37.6563
L157.6613 38.5029
" />
<path d="M157.6613 37.7772
L157.7218 37.7167
" />
<path d="M157.7218 37.7167
L157.8428 37.6563
" />
<path d="M157.8428 37.6563
L158.0242 37.6563
" />
<path d="M158.0242 37.6563
L158.1451 37.7167
" />
<path d="M158.1451 37.7167
L158.2056 37.8377
" />
<path d="M158.2056 37.8377
L158.2056 38.5029
" />
<path d="M159.3546 38.5029
L159.3546 37.2329
" />
<path d="M159.3546 38.4425
L159.2337 38.5029
" />
<path d="M159.2337 38.5029
L158.9918 38.5029
" />
<path d="M158.9918 38.5029
L158.8708 38.4425
" />
<path d="M158.8708 38.4425
L158.8103 38.3820
" />
<path d="M158.8103 38.3820
L158.7499 38.2610
" />
<path d="M158.7499 38.2610
L158.7499 37.8982
" />
<path d="M158.7499 37.8982
L158.8103 37.7772
" />
<path d="M158.8103 37.7772
L158.8708 37.7167
" />
<path d="M158.8708 37.7167
L158.9918 37.6563
" />
<path d="M158.9918 37.6563
L159.2337 37.6563
" />
<path d="M159.2337 37.6563
L159.3546 37.7167
" />
<path d="M159.9593 37.6563
L159.9593 38.9263
" />
<path d="M159.9593 37.7167
L160.0803 37.6563
" />
<path d="M160.0803 37.6563
L160.3222 37.6563
" />
<path d="M160.3222 37.6563
L160.4431 37.7167
" />
<path d="M160.4431 37.7167
L160.5036 37.7772
" />
<path d="M160.5036 37.7772
L160.5641 37.8982
" />
<path d="M160.5641 37.8982
L160.5641 38.2610
" />
<path d="M160.5641 38.2610
L160.5036 38.3820
" />
<path d="M160.5036 38.3820
L160.4431 38.4425
" />
<path d="M160.4431 38.4425
L160.3222 38.5029
" />
<path d="M160.3222 38.5029
L160.0803 38.5029
" />
<path d="M160.0803 38.5029
L159.9593 38.4425
" />
<path d="M161.1083 38.5029
L161.1083 37.6563
" />
<path d="M161.1083 37.8982
L161.1688 37.7772
" />
<path d="M161.1688 37.7772
L161.2293 37.7167
" />
<path d="M161.2293 37.7167
L161.3502 37.6563
" />
<path d="M161.3502 37.6563
L161.4712 37.6563
" />
<path d="M161.8945 38.5029
L161.8945 37.6563
" />
<path d="M161.8945 37.2329
L161.8341 37.2934
" />
<path d="M161.8341 37.2934
L161.8945 37.3539
" />
<path d="M161.8945 37.3539
L161.9550 37.2934
" />
<path d="M161.9550 37.2934
L161.8945 37.2329
" />
<path d="M161.8945 37.2329
L161.8945 37.3539
" />
<path d="M162.4993 37.6563
L162.4993 38.5029
" />
<path d="M162.4993 37.7772
L162.5598 37.7167
" />
<path d="M162.5598 37.7167
L162.6808 37.6563
" />
<path d="M162.6808 37.6563
L162.8622 37.6563
" />
<path d="M162.8622 37.6563
L162.9831 37.7167
" />
<path d="M162.9831 37.7167
L163.0436 37.8377
" />
<path d="M163.0436 37.8377
L163.0436 38.5029
" />
<path d="M163.4669 37.6563
L163.9507 37.6563
" />
<path d="M163.6483 37.2329
L163.6483 38.3215
" />
<path d="M163.6483 38.3215
L163.7088 38.4425
" />
<path d="M163.7088 38.4425
L163.8298 38.5029
" />
<path d="M163.8298 38.5029
L163.9507 38.5029
" />
</g></g>
<g style="fill:#725600; fill-opacity:0.0; 
stroke:#725600; stroke-width:0.1524; stroke-opacity:1; 
stroke-linecap:round; stroke-linejoin:round;">
<text x="154.9400" y="142.8246"
textLength="19.6002" font-size="1.6933" lengthAdjust="spacingAndGlyphs"
text-anchor="start" opacity="0">File: bund.kicad_sch</text>
<g class="stroked-text"><desc>File: bund.kicad_sch</desc>
<path d="M155.6657 142.2198
L155.2423 142.2198
" />
<path d="M155.2423 142.8850
L155.2423 141.6150
" />
<path d="M155.2423 141.6150
L155.8471 141.6150
" />
<path d="M156.3309 142.8850
L156.3309 142.0384
" />
<path d="M156.3309 141.6150
L156.2705 141.6755
" />
<path d="M156.2705 141.6755
L156.3309 141.7360
" />
<path d="M156.3309 141.7360
L156.3914 141.6755
" />
<path d="M156.3914 141.6755
L156.3309 141.6150
" />
<path d="M156.3309 141.6150
L156.3309 141.7360
" />
<path d="M157.1172 142.8850
L156.9962 142.8246
" />
<path d="M156.9962 142.8246
L156.9357 142.7036
" />
<path d="M156.9357 142.7036
L156.9357 141.6150
" />
<path d="M158.0847 142.8246
L157.9638 142.8850
" />
<path d="M157.9638 142.8850
L157.7219 142.8850
" />
<path d="M157.7219 142.8850
L157.6009 142.8246
" />
<path d="M157.6009 142.8246
L157.5405 142.7036
" />
<path d="M157.5405 142.7036
L157.5405 142.2198
" />
<path d="M157.5405 142.2198
L157.6009 142.0988
" />
<path d="M157.6009 142.0988
L157.7219 142.0384
" />
<path d="M157.7219 142.0384
L157.9638 142.0384
" />
<path d="M157.9638 142.0384
L158.0847 142.0988
" />
<path d="M158.0847 142.0988
L158.1452 142.2198
" />
<path d="M158.1452 142.2198
L158.1452 142.3407
" />
<path d="M158.1452 142.3407
L157.5405 142.4617
" />
<path d="M158.6895 142.7641
L158.7500 142.8246
" />
<path d="M158.7500 142.8246
L158.6895 142.8850
" />
<path d="M158.6895 142.8850
L158.6291 142.8246
" />
<path d="M158.6291 142.8246
L158.6895 142.7641
" />
<path d="M158.6895 142.7641
L158.6895 142.8850
" />
<path d="M158.6895 142.0988
L158.7500 142.1593
" />
<path d="M158.7500 142.1593
L158.6895 142.2198
" />
<path d="M158.6895 142.2198
L158.6291 142.1593
" />
<path d="M158.6291 142.1593
L158.6895 142.0988
" />
<path d="M158.6895 142.0988
L158.6895 142.2198
" />
<path d="M160.2619 142.8850
L160.2619 141.6150
" />
<path d="M160.2619 142.0988
L160.3829 142.0384
" />
<path d="M160.3829 142.0384
L160.6248 142.0384
" />
<path d="M160.6248 142.0384
L160.7457 142.0988
" />
<path d="M160.7457 142.0988
L160.8062 142.1593
" />
<path d="M160.8062 142.1593
L160.8667 142.2803
" />
<path d="M160.8667 142.2803
L160.8667 142.6431
" />
<path d="M160.8667 142.6431
L160.8062 142.7641
" />
<path d="M160.8062 142.7641
L160.7457 142.8246
" />
<path d="M160.7457 142.8246
L160.6248 142.8850
" />
<path d="M160.6248 142.8850
L160.3829 142.8850
" />
<path d="M160.3829 142.8850
L160.2619 142.8246
" />
<path d="M161.9552 142.0384
L161.9552 142.8850
" />
<path d="M161.4109 142.0384
L161.4109 142.7036
" />
<path d="M161.4109 142.7036
L161.4714 142.8246
" />
<path d="M161.4714 142.8246
L161.5924 142.8850
" />
<path d="M161.5924 142.8850
L161.7738 142.8850
" />
<path d="M161.7738 142.8850
L161.8947 142.8246
" />
<path d="M161.8947 142.8246
L161.9552 142.7641
" />
<path d="M162.5599 142.0384
L162.5599 142.8850
" />
<path d="M162.5599 142.1593
L162.6204 142.0988
" />
<path d="M162.6204 142.0988
L162.7414 142.0384
" />
<path d="M162.7414 142.0384
L162.9228 142.0384
" />
<path d="M162.9228 142.0384
L163.0437 142.0988
" />
<path d="M163.0437 142.0988
L163.1042 142.2198
" />
<path d="M163.1042 142.2198
L163.1042 142.8850
" />
<path d="M164.2532 142.8850
L164.2532 141.6150
" />
<path d="M164.2532 142.8246
L164.1323 142.8850
" />
<path d="M164.1323 142.8850
L163.8904 142.8850
" />
<path d="M163.8904 142.8850
L163.7694 142.8246
" />
<path d="M163.7694 142.8246
L163.7089 142.7641
" />
<path d="M163.7089 142.7641
L163.6485 142.6431
" />
<path d="M163.6485 142.6431
L163.6485 142.2803
" />
<path d="M163.6485 142.2803
L163.7089 142.1593
" />
<path d="M163.7089 142.1593
L163.7694 142.0988
" />
<path d="M163.7694 142.0988
L163.8904 142.0384
" />
<path d="M163.8904 142.0384
L164.1323 142.0384
" />
<path d="M164.1323 142.0384
L164.2532 142.0988
" />
<path d="M164.8579 142.7641
L164.9184 142.8246
" />
<path d="M164.9184 142.8246
L164.8579 142.8850
" />
<path d="M164.8579 142.8850
L164.7975 142.8246
" />
<path d="M164.7975 142.8246
L164.8579 142.7641
" />
<path d="M164.8579 142.7641
L164.8579 142.8850
" />
<path d="M165.4627 142.8850
L165.4627 141.6150
" />
<path d="M165.5837 142.4012
L165.9465 142.8850
" />
<path d="M165.9465 142.0384
L165.4627 142.5222
" />
<path d="M166.4908 142.8850
L166.4908 142.0384
" />
<path d="M166.4908 141.6150
L166.4304 141.6755
" />
<path d="M166.4304 141.6755
L166.4908 141.7360
" />
<path d="M166.4908 141.7360
L166.5513 141.6755
" />
<path d="M166.5513 141.6755
L166.4908 141.6150
" />
<path d="M166.4908 141.6150
L166.4908 141.7360
" />
<path d="M167.6399 142.8246
L167.5190 142.8850
" />
<path d="M167.5190 142.8850
L167.2771 142.8850
" />
<path d="M167.2771 142.8850
L167.1561 142.8246
" />
<path d="M167.1561 142.8246
L167.0956 142.7641
" />
<path d="M167.0956 142.7641
L167.0352 142.6431
" />
<path d="M167.0352 142.6431
L167.0352 142.2803
" />
<path d="M167.0352 142.2803
L167.0956 142.1593
" />
<path d="M167.0956 142.1593
L167.1561 142.0988
" />
<path d="M167.1561 142.0988
L167.2771 142.0384
" />
<path d="M167.2771 142.0384
L167.5190 142.0384
" />
<path d="M167.5190 142.0384
L167.6399 142.0988
" />
<path d="M168.7285 142.8850
L168.7285 142.2198
" />
<path d="M168.7285 142.2198
L168.6680 142.0988
" />
<path d="M168.6680 142.0988
L168.5471 142.0384
" />
<path d="M168.5471 142.0384
L168.3052 142.0384
" />
<path d="M168.3052 142.0384
L168.1842 142.0988
" />
<path d="M168.7285 142.8246
L168.6076 142.8850
" />
<path d="M168.6076 142.8850
L168.3052 142.8850
" />
<path d="M168.3052 142.8850
L168.1842 142.8246
" />
<path d="M168.1842 142.8246
L168.1238 142.7036
" />
<path d="M168.1238 142.7036
L168.1238 142.5826
" />
<path d="M168.1238 142.5826
L168.1842 142.4617
" />
<path d="M168.1842 142.4617
L168.3052 142.4012
" />
<path d="M168.3052 142.4012
L168.6076 142.4012
" />
<path d="M168.6076 142.4012
L168.7285 142.3407
" />
<path d="M169.8775 142.8850
L169.8775 141.6150
" />
<path d="M169.8775 142.8246
L169.7566 142.8850
" />
<path d="M169.7566 142.8850
L169.5147 142.8850
" />
<path d="M169.5147 142.8850
L169.3937 142.8246
" />
<path d="M169.3937 142.8246
L169.3332 142.7641
" />
<path d="M169.3332 142.7641
L169.2728 142.6431
" />
<path d="M169.2728 142.6431
L169.2728 142.2803
" />
<path d="M169.2728 142.2803
L169.3332 142.1593
" />
<path d="M169.3332 142.1593
L169.3937 142.0988
" />
<path d="M169.3937 142.0988
L169.5147 142.0384
" />
<path d="M169.5147 142.0384
L169.7566 142.0384
" />
<path d="M169.7566 142.0384
L169.8775 142.0988
" />
<path d="M170.1799 143.0060
L171.1475 143.0060
" />
<path d="M171.3894 142.8246
L171.5103 142.8850
" />
<path d="M171.5103 142.8850
L171.7522 142.8850
" />
<path d="M171.7522 142.8850
L171.8732 142.8246
" />
<path d="M171.8732 142.8246
L171.9336 142.7036
" />
<path d="M171.9336 142.7036
L171.9336 142.6431
" />
<path d="M171.9336 142.6431
L171.8732 142.5222
" />
<path d="M171.8732 142.5222
L171.7522 142.4617
" />
<path d="M171.7522 142.4617
L171.5708 142.4617
" />
<path d="M171.5708 142.4617
L171.4498 142.4012
" />
<path d="M171.4498 142.4012
L171.3894 142.2803
" />
<path d="M171.3894 142.2803
L171.3894 142.2198
" />
<path d="M171.3894 142.2198
L171.4498 142.0988
" />
<path d="M171.4498 142.0988
L171.5708 142.0384
" />
<path d="M171.5708 142.0384
L171.7522 142.0384
" />
<path d="M171.7522 142.0384
L171.8732 142.0988
" />
<path d="M173.0222 142.8246
L172.9013 142.8850
" />
<path d="M172.9013 142.8850
L172.6594 142.8850
" />
<path d="M172.6594 142.8850
L172.5384 142.8246
" />
<path d="M172.5384 142.8246
L172.4779 142.7641
" />
<path d="M172.4779 142.7641
L172.4175 142.6431
" />
<path d="M172.4175 142.6431
L172.4175 142.2803
" />
<path d="M172.4175 142.2803
L172.4779 142.1593
" />
<path d="M172.4779 142.1593
L172.5384 142.0988
" />
<path d="M172.5384 142.0988
L172.6594 142.0384
" />
<path d="M172.6594 142.0384
L172.9013 142.0384
" />
<path d="M172.9013 142.0384
L173.0222 142.0988
" />
<path d="M173.5665 142.8850
L173.5665 141.6150
" />
<path d="M174.1108 142.8850
L174.1108 142.2198
" />
<path d="M174.1108 142.2198
L174.0503 142.0988
" />
<path d="M174.0503 142.0988
L173.9294 142.0384
" />
<path d="M173.9294 142.0384
L173.7480 142.0384
" />
<path d="M173.7480 142.0384
L173.6270 142.0988
" />
<path d="M173.6270 142.0988
L173.5665 142.1593
" />
</g></g> 
</svg>
